<?xml version="1.0" standalone="no"?>
<!DOCTYPE svg PUBLIC "-//W3C//DTD SVG 20010904//EN"
 "http://www.w3.org/TR/2001/REC-SVG-20010904/DTD/svg10.dtd">

<svg version="1.0" xmlns="http://www.w3.org/2000/svg"
 width="860" height="653" viewBox="0 0 860 653"
 preserveAspectRatio="xMidYMid meet">

<g transform="translate(0,653) scale(0.1,-0.1)" fill="#305582" stroke="none">

<path d="M4080 6110 c-262 -10 -357 -29 -635 -122 -388 -130 -531 -200 -835
-411 -122 -85 -175 -131 -336 -291 -275 -276 -380 -414 -513 -675 -208 -410
-293 -730 -322 -1221 -30 -520 68 -974 320 -1465 81 -160 174 -300 310 -470
132 -164 215 -246 383 -380 179 -143 249 -190 419 -283 249 -136 396 -199 631
-267 549 -160 1212 -150 1724 26 502 173 905 450 1272 874 292 339 510 808
628 1352 63 293 51 685 -33 1063 -45 205 -151 518 -221 655 -11 22 -32 66 -45
97 -32 71 -193 316 -283 428 -89 110 -344 366 -462 463 -271 224 -645 420
-992 521 -333 98 -581 123 -1010 106z m590 -125 c607 -95 1154 -368 1570 -785
175 -174 252 -267 333 -398 226 -364 377 -768 443 -1179 10 -61 18 -193 21
-348 5 -245 4 -254 -27 -438 -81 -490 -296 -978 -571 -1304 -274 -323 -414
-445 -725 -633 -303 -183 -625 -296 -1014 -357 -146 -22 -589 -25 -750 -4
-445 57 -872 225 -1249 492 -342 241 -642 564 -809 869 -151 275 -248 574
-308 947 -22 134 -30 558 -14 706 37 348 116 642 239 892 192 392 381 646 652
874 447 377 1015 622 1584 684 93 11 523 -2 625 -18z"/>
<path d="M4012 5890 c-34 -4 -65 -10 -69 -13 -5 -6 15 -275 34 -443 l5 -51 52
4 c28 2 75 6 104 9 l52 5 0 46 0 45 -57 -4 -58 -3 -3 53 -3 52 49 0 c57 0 63
7 53 65 l-7 40 -54 0 -55 0 -3 41 -3 42 55 7 56 6 0 55 0 54 -42 -1 c-24 -1
-71 -5 -106 -9z"/>
<path d="M4317 5893 c-4 -3 -7 -116 -7 -250 l0 -243 90 0 c111 0 140 13 170
75 23 47 21 83 -6 137 -12 22 -12 28 -1 35 30 18 47 59 47 111 0 48 -4 58 -33
87 -18 18 -51 38 -72 44 -44 12 -178 15 -188 4z"/>
<path d="M3843 5863 c-22 -4 -23 -8 -23 -129 0 -68 -3 -124 -8 -124 -4 0 -27
50 -52 110 l-44 110 -35 -6 c-90 -17 -92 2 29 -246 119 -245 106 -231 188
-213 l22 5 0 250 0 250 -27 -1 c-16 -1 -38 -4 -50 -6z"/>
<path d="M4717 5843 c-3 -10 -39 -112 -81 -228 -42 -115 -76 -214 -76 -221 0
-14 83 -29 88 -16 10 32 30 44 60 37 26 -5 33 -13 38 -40 5 -29 10 -33 46 -39
22 -4 42 -5 43 -4 2 2 6 116 10 254 l8 251 -46 11 c-63 16 -84 15 -90 -5z"/>
<path d="M4921 5577 c-35 -122 -65 -229 -68 -238 -3 -11 7 -19 35 -27 58 -17
59 -17 72 41 21 88 29 88 30 1 l0 -81 41 -12 c34 -10 43 -10 50 1 8 12 59 147
138 365 l29 82 -44 17 c-26 10 -48 13 -53 8 -5 -5 -21 -44 -36 -87 -18 -49
-32 -74 -38 -68 -5 5 -7 50 -6 100 l4 91 -44 15 c-25 8 -45 15 -45 15 -1 0
-30 -100 -65 -223z"/>
<path d="M3410 5748 c-36 -11 -69 -23 -73 -28 -6 -6 154 -452 167 -467 6 -6
96 30 96 38 0 4 -9 32 -20 60 -12 28 -18 54 -15 57 3 3 30 -18 59 -47 l54 -53
38 12 c22 7 43 15 48 18 4 2 -24 37 -63 76 l-72 72 16 37 c42 100 -8 208 -110
236 -49 13 -45 14 -125 -11z"/>
<path d="M3175 5659 c-55 -27 -100 -52 -100 -56 0 -14 215 -433 223 -433 4 0
46 16 93 37 l87 36 -16 44 c-18 47 -24 50 -62 28 -36 -21 -48 -18 -63 13 -33
63 -32 70 13 88 44 18 45 23 20 89 -11 30 -11 30 -60 5 -52 -26 -56 -26 -69
11 -16 46 -15 48 33 70 l45 19 -16 45 c-8 25 -18 47 -21 49 -4 2 -52 -19 -107
-45z"/>
<path d="M5289 5662 c-6 -15 -44 -114 -85 -220 -41 -107 -74 -197 -74 -202 0
-10 57 -40 75 -40 11 0 31 38 55 103 5 15 15 27 21 27 6 0 9 -6 6 -14 -3 -8
-9 -45 -12 -83 l-7 -68 42 -24 c23 -12 44 -20 48 -16 4 3 15 77 24 163 11 99
22 159 30 163 76 45 152 96 155 105 4 11 -58 44 -83 44 -9 0 -36 -14 -60 -32
-24 -17 -47 -29 -50 -26 -3 4 3 27 15 52 l20 46 -29 15 c-70 36 -80 37 -91 7z"/>
<path d="M2926 5540 c-72 -22 -117 -103 -97 -177 20 -72 73 -103 204 -119 32
-3 68 -14 80 -24 18 -15 20 -22 12 -46 -8 -21 -20 -31 -48 -37 -20 -5 -37 -13
-37 -18 0 -9 50 -89 55 -89 2 0 24 9 48 19 98 42 128 153 65 237 -37 49 -61
59 -178 71 -70 8 -75 10 -85 36 -13 38 12 57 72 57 49 0 51 5 23 60 -18 35
-25 40 -53 39 -17 0 -45 -5 -61 -9z"/>
<path d="M5648 5446 c-139 -50 -253 -252 -208 -370 22 -59 130 -75 203 -30
126 79 223 258 187 344 -25 61 -102 84 -182 56z m90 -113 c9 -61 -129 -223
-189 -223 -22 0 -29 5 -29 20 0 39 45 115 101 173 47 49 61 58 85 55 21 -2 30
-9 32 -25z"/>
<path d="M2680 5383 c-30 -25 -70 -58 -88 -74 l-34 -29 119 -128 c65 -70 144
-156 175 -191 l57 -63 81 62 c44 35 80 65 80 69 -1 3 -13 21 -28 38 l-28 33
-39 -32 -38 -32 -34 39 c-18 21 -33 42 -33 46 0 4 16 21 36 38 l35 32 -31 40
-32 40 -45 -37 -44 -36 -24 22 c-41 39 -41 58 -1 92 20 16 36 34 36 40 0 14
-49 78 -58 77 -4 0 -32 -21 -62 -46z"/>
<path d="M5869 5253 c-54 -66 -150 -177 -233 -271 l-20 -22 34 -35 c19 -19 37
-35 41 -35 4 0 32 30 64 68 32 37 62 69 67 71 5 2 20 -7 34 -20 l24 -23 35 34
c42 40 43 52 10 74 -31 21 -31 27 1 65 l26 31 37 -30 38 -29 33 34 c18 18 31
38 29 43 -5 12 -139 122 -149 122 -4 0 -36 -35 -71 -77z"/>
<path d="M4120 5309 c-168 -15 -281 -39 -450 -95 -195 -66 -323 -126 -480
-224 -143 -90 -220 -152 -337 -271 -176 -180 -291 -337 -403 -552 -92 -176
-141 -333 -181 -573 -19 -114 -20 -155 -16 -349 10 -408 53 -585 212 -892 245
-472 582 -792 1017 -967 236 -95 367 -130 583 -156 435 -53 911 50 1296 281
176 105 260 171 395 312 159 166 311 381 394 559 220 471 248 1007 79 1528
-42 128 -150 363 -217 469 -215 343 -589 649 -962 786 -41 15 -102 38 -135 50
-86 33 -268 72 -425 89 -145 17 -220 18 -370 5z m457 -105 c126 -19 348 -77
448 -117 111 -46 333 -169 413 -229 106 -80 278 -246 351 -338 154 -193 281
-419 346 -614 102 -303 132 -748 71 -1036 -48 -225 -171 -539 -270 -690 -113
-172 -346 -411 -501 -516 -203 -138 -339 -202 -565 -268 -243 -70 -285 -77
-500 -83 -232 -6 -375 9 -580 63 -234 61 -381 129 -599 275 -205 136 -300 229
-468 454 -84 112 -221 380 -272 530 -85 252 -111 467 -93 765 19 303 76 515
203 760 109 209 187 319 313 444 338 331 658 507 1071 590 184 37 428 41 632
10z"/>
<path d="M3760 5075 c-96 -24 -184 -62 -291 -126 -181 -109 -322 -226 -415
-343 -76 -96 -98 -139 -90 -172 14 -53 63 -44 139 26 34 31 64 50 79 50 13 0
39 11 58 23 19 13 51 27 70 31 19 3 52 18 72 31 21 14 50 25 66 25 15 0 49 14
75 30 58 36 61 37 75 5 6 -14 18 -25 25 -25 16 0 87 -64 87 -79 0 -6 18 -20
39 -31 22 -11 51 -31 65 -45 15 -15 37 -25 54 -25 18 0 38 -10 57 -30 26 -27
35 -30 65 -25 38 6 100 -17 100 -38 0 -7 -12 -30 -25 -52 -20 -32 -25 -53 -25
-106 0 -76 -11 -91 -75 -107 -112 -29 -268 -18 -411 29 -88 28 -209 112 -269
186 -27 34 -53 62 -57 62 -14 2 -70 -122 -109 -243 -84 -257 -131 -609 -109
-806 25 -223 58 -339 152 -525 95 -190 162 -289 266 -397 105 -109 202 -188
342 -281 107 -70 343 -191 436 -223 l52 -18 73 28 c119 46 348 160 433 216
211 138 368 309 499 545 140 251 187 380 212 585 43 348 -9 657 -166 997 -19
40 -39 73 -45 73 -5 0 -23 -14 -40 -31 -16 -17 -76 -62 -133 -100 -113 -75
-227 -119 -307 -119 l-44 0 16 25 c9 13 26 27 37 31 90 27 69 108 -32 121 -54
7 -165 63 -169 85 -3 14 2 17 25 13 19 -4 42 3 74 22 81 49 159 103 159 111 0
4 16 24 35 44 l34 37 123 -10 c68 -6 166 -12 218 -15 52 -2 124 -5 160 -7 54
-2 74 -8 118 -36 37 -24 65 -35 95 -35 40 -1 42 1 45 30 3 28 -8 42 -109 137
-185 177 -425 324 -629 387 -225 70 -350 43 -350 -74 0 -32 -7 -50 -31 -79
-17 -20 -37 -37 -45 -37 -14 0 -64 91 -64 117 0 8 8 25 17 39 14 22 14 27 2
35 -8 5 -27 9 -42 9 -15 0 -44 7 -64 15 -50 21 -129 19 -161 -4 -15 -10 -49
-26 -75 -36 -47 -18 -77 -46 -77 -72 0 -9 15 -13 43 -13 43 0 77 -21 77 -47 0
-6 -20 -29 -45 -52 -51 -47 -81 -52 -121 -18 -27 24 -27 25 -16 82 22 109 10
156 -51 194 -40 24 -94 26 -177 6z m162 -65 c17 -21 19 -33 12 -75 -15 -98
-11 -151 14 -178 26 -27 82 -47 136 -47 l36 0 0 -55 c0 -41 -4 -55 -14 -55 -8
0 -16 10 -18 22 -2 16 -15 26 -43 36 -86 30 -100 37 -131 65 -50 43 -59 84
-38 169 16 69 16 72 -1 85 -27 19 -93 16 -166 -7 -66 -20 -231 -113 -306 -172
-133 -105 -182 -150 -262 -235 -65 -70 -94 -94 -106 -89 -14 5 -12 13 16 66
52 98 198 227 399 352 133 83 137 85 234 119 64 23 95 28 150 26 59 -2 71 -6
88 -27z m438 -26 c34 -14 38 -19 29 -35 -6 -13 -6 -25 1 -38 5 -11 10 -33 10
-50 0 -17 11 -42 27 -61 l26 -32 -27 -26 -27 -27 -19 23 c-25 30 -39 28 -51
-8 -14 -40 -34 -38 -57 5 l-18 36 -22 -31 c-13 -16 -27 -30 -32 -30 -16 0 -11
55 9 101 12 25 17 54 14 70 -4 21 -1 28 13 32 15 4 12 7 -14 18 -20 8 -31 20
-30 29 4 19 38 26 48 10 5 -8 18 -10 36 -6 28 7 28 8 10 22 -19 13 -19 14 7
14 15 0 45 -7 67 -16z m475 1 c88 -19 271 -87 353 -132 134 -72 342 -237 342
-270 0 -22 -20 -15 -80 30 -176 133 -444 268 -622 313 -79 21 -98 12 -122 -56
-30 -82 -129 -176 -150 -142 -5 9 3 24 58 107 21 32 43 77 48 99 15 69 44 78
173 51z m-575 -667 c0 -7 -7 -21 -15 -32 -8 -10 -17 -38 -20 -61 -10 -65 -14
-67 -70 -46 -45 17 -50 22 -53 53 -4 45 27 85 71 91 67 8 87 7 87 -5z m191 2
c12 0 21 -19 33 -62 10 -35 26 -76 38 -91 47 -66 -22 -75 -80 -10 -34 39 -82
131 -82 159 0 14 6 16 38 10 20 -3 44 -6 53 -6z m939 -505 c0 -12 -21 -15
-120 -15 -87 0 -120 3 -120 12 0 9 -3 9 -12 0 -17 -17 -348 -17 -348 0 0 9 -3
9 -12 0 -17 -17 -309 -17 -326 0 -9 9 -12 9 -12 0 0 -9 -44 -12 -170 -12 -126
0 -170 3 -170 12 0 9 -3 9 -12 0 -17 -17 -339 -17 -356 0 -9 9 -12 9 -12 0 0
-16 -316 -17 -326 -1 -4 8 -9 8 -17 0 -7 -7 -63 -11 -149 -11 -116 0 -138 2
-138 15 0 13 132 15 1150 15 1010 0 1150 -2 1150 -15z m28 -242 c-3 -17 -68
-18 -1171 -21 -1162 -2 -1167 -2 -1167 18 0 20 6 20 1171 20 1109 0 1170 -1
1167 -17z m-2210 -406 c2 -229 -1 -318 -9 -315 -17 6 -64 125 -88 219 -21 87
-41 260 -41 362 l0 58 68 -3 67 -3 3 -318z m360 -239 c1 -307 -1 -558 -6 -558
-4 0 -35 26 -70 58 l-62 58 0 502 0 503 68 -3 67 -3 3 -557z m742 377 l0 -185
-70 0 -70 0 0 185 0 185 70 0 70 0 0 -185z m760 -322 l-1 -508 -64 -70 -64
-70 -1 578 0 577 65 0 65 0 0 -507z m355 385 c-7 -136 -27 -267 -51 -343 -21
-64 -55 -135 -66 -135 -4 0 -8 135 -8 300 l0 300 66 0 67 0 -8 -122z m-1421
-32 c49 -37 66 -74 66 -141 0 -79 -19 -113 -128 -228 -92 -97 -145 -180 -119
-184 7 -1 65 -5 130 -8 l117 -7 0 -49 0 -49 -200 0 -200 0 0 63 c0 83 33 139
154 266 103 107 126 143 126 194 0 41 -24 66 -73 74 -32 5 -41 1 -72 -30 -19
-19 -35 -42 -35 -51 0 -13 -11 -16 -50 -16 l-50 0 0 35 c0 39 27 101 57 127
33 30 67 38 154 35 77 -3 91 -6 123 -31z m721 3 c74 -20 125 -88 125 -168 0
-50 -11 -78 -45 -114 -15 -16 -25 -29 -24 -31 2 -1 16 -7 31 -13 14 -7 39 -33
53 -58 24 -40 27 -54 23 -113 -4 -84 -30 -125 -102 -158 -45 -21 -66 -24 -173
-24 l-123 0 0 345 0 345 98 0 c53 0 115 -5 137 -11z m-825 -119 c23 -23 23
-23 9 -74 -11 -38 -82 -126 -103 -126 -7 0 -10 28 -8 90 3 82 5 91 29 110 32
25 48 25 73 0z m470 -185 l0 -46 -122 3 -123 3 -3 43 -3 42 125 0 126 0 0 -45z
m-62 -587 l-3 -492 -33 -8 c-26 -7 -41 -5 -65 10 l-32 18 -3 482 -2 482 70 0
70 0 -2 -492z m-368 -98 c0 -276 4 -266 -90 -202 l-55 37 0 68 c0 37 2 128 3
202 l2 135 70 0 70 0 0 -240z m760 16 l0 -224 -66 -37 c-36 -20 -67 -35 -69
-33 -3 3 -8 456 -5 511 0 4 32 7 70 7 l70 0 0 -224z"/>
<path d="M4600 3150 c0 -89 1 -90 69 -70 41 11 60 35 61 75 0 53 -24 75 -81
75 l-49 0 0 -80z"/>
<path d="M4643 2943 l-43 -4 0 -90 0 -89 51 0 c28 0 59 5 70 10 41 23 63 106
36 141 -14 18 -51 40 -64 37 -4 -1 -27 -3 -50 -5z"/>
<path d="M2883 4253 c-29 -32 -61 -75 -71 -95 -16 -34 -20 -37 -49 -32 -29 6
-33 4 -33 -16 0 -13 -16 -70 -36 -128 -41 -118 -43 -179 -8 -248 20 -39 23
-124 4 -124 -5 0 -24 18 -43 40 -57 66 -59 61 -55 -130 l3 -171 -22 6 c-31 7
-50 -3 -57 -31 -11 -41 9 -64 55 -64 41 0 72 -12 97 -37 22 -21 5 -29 -31 -14
-70 29 -72 26 -72 -74 0 -122 24 -165 135 -238 44 -29 80 -56 80 -60 0 -15
-44 5 -78 34 -35 31 -52 35 -82 19 -55 -29 -18 -113 48 -108 l35 3 16 -70 c24
-100 63 -177 105 -211 41 -33 44 -40 16 -47 -21 -5 -28 -49 -12 -73 15 -24 51
-26 78 -5 29 23 65 27 95 10 30 -16 13 -29 -40 -29 -26 0 -50 -3 -54 -6 -3 -4
19 -56 51 -117 65 -128 148 -225 215 -252 23 -10 76 -21 117 -26 111 -13 198
-27 210 -34 5 -3 10 -13 10 -22 0 -12 -7 -14 -32 -9 -94 20 -125 19 -147 -3
-11 -11 -21 -30 -21 -41 0 -30 36 -60 71 -60 25 0 45 -13 99 -66 124 -120 225
-174 328 -174 54 0 58 -2 75 -32 20 -36 15 -43 -40 -54 -45 -9 -43 -36 4 -69
73 -49 146 -24 251 88 29 32 57 57 62 57 5 0 10 -12 12 -27 2 -19 14 -33 43
-48 71 -39 82 -40 114 -6 l28 30 31 -32 c18 -18 57 -45 87 -61 l55 -28 53 21
c28 11 64 23 79 26 32 6 56 41 39 58 -16 16 -13 45 5 55 9 5 37 7 63 4 43 -4
50 -1 77 27 26 28 35 31 87 31 61 0 117 21 117 44 0 7 24 28 54 46 30 19 57
42 60 53 7 30 -11 57 -39 57 -14 0 -25 5 -25 10 0 17 59 11 100 -10 78 -40
143 -17 138 48 -3 32 -7 38 -38 48 -19 6 -36 16 -37 21 -4 12 78 49 144 63 37
8 60 21 82 45 16 18 46 39 66 46 34 13 39 21 47 73 3 20 13 27 65 46 26 10 35
22 48 59 8 26 31 63 50 81 59 58 37 109 -42 94 l-36 -7 6 33 c4 18 7 36 7 41
0 4 42 28 93 53 147 71 162 88 135 162 -10 28 -9 34 11 55 15 17 20 31 16 50
-5 23 -2 27 33 37 49 15 64 33 60 69 -2 21 -11 30 -33 37 -16 6 -32 11 -33 12
-2 1 6 16 18 32 12 16 25 53 29 84 4 30 17 71 29 90 22 35 22 37 5 72 -15 32
-15 42 -4 85 13 53 9 69 -30 120 -23 28 -24 72 -5 109 24 47 29 98 13 129 -8
15 -20 41 -26 56 -14 36 -49 50 -79 31 -12 -8 -26 -13 -30 -10 -5 3 -5 39 0
81 6 60 5 82 -7 105 -8 16 -15 43 -15 60 0 28 -23 63 -49 71 -6 2 -15 26 -20
52 -14 77 -54 107 -88 67 -10 -11 -20 -20 -24 -20 -3 0 -20 22 -36 49 -24 39
-38 50 -66 55 -73 14 -111 -28 -88 -95 18 -53 14 -69 -20 -76 -37 -7 -53 -41
-39 -79 6 -14 10 -42 10 -63 0 -24 8 -49 22 -66 12 -16 29 -42 38 -59 9 -20
24 -32 40 -34 53 -8 53 -26 -2 -139 -17 -35 -13 -81 9 -106 28 -31 37 -99 18
-137 -8 -16 -15 -39 -15 -51 0 -13 -9 -33 -21 -45 -19 -20 -20 -26 -8 -58 10
-27 10 -41 1 -58 -6 -13 -11 -41 -12 -63 0 -83 1 -171 3 -190 2 -16 -5 -21
-29 -23 -51 -5 -69 -34 -70 -111 -1 -90 0 -88 -36 -89 -44 -1 -61 -26 -53 -78
5 -33 2 -44 -15 -59 -11 -10 -25 -35 -30 -56 -10 -35 -13 -38 -39 -33 -36 7
-64 -26 -80 -94 -9 -35 -19 -51 -41 -64 -27 -15 -30 -22 -30 -66 0 -32 -5 -54
-15 -62 -12 -10 -14 -25 -9 -71 6 -53 4 -61 -20 -89 -14 -17 -26 -36 -26 -41
0 -5 -7 -9 -15 -9 -23 0 -18 29 10 62 14 16 25 41 25 54 0 28 -41 74 -65 74
-20 0 -57 -19 -67 -34 -16 -23 -8 -87 14 -116 18 -25 20 -33 10 -55 -15 -34
-47 -32 -64 3 -13 25 -17 27 -73 24 -68 -3 -103 -22 -118 -63 -10 -25 -17 -29
-49 -29 -31 0 -42 -6 -69 -40 -24 -29 -40 -40 -60 -40 -18 0 -36 -10 -53 -31
-25 -30 -27 -30 -51 -15 -59 39 -118 -3 -81 -58 9 -14 16 -32 16 -40 0 -20
-44 -53 -81 -61 -62 -14 -105 68 -59 110 26 24 25 47 -3 73 -27 26 -54 28 -85
6 -30 -21 -27 -50 8 -103 31 -46 36 -61 21 -61 -12 0 -81 94 -81 111 -1 32
-41 97 -91 149 -40 42 -72 63 -124 84 -38 16 -109 47 -157 69 -79 36 -88 43
-88 67 0 35 -23 54 -55 46 -45 -11 -43 -90 6 -169 23 -38 24 -47 4 -47 -24 0
-43 52 -59 160 -23 152 -55 203 -215 353 -49 47 -67 58 -85 53 -22 -5 -24 -2
-29 52 -9 79 -49 191 -93 257 -31 48 -36 61 -30 95 5 32 2 44 -19 68 -20 24
-25 41 -25 85 0 36 -11 86 -31 143 -28 79 -30 91 -19 129 14 51 16 152 6 270
-7 77 -5 101 12 165 11 41 23 101 27 134 4 32 13 78 20 102 l13 44 -28 0 c-26
0 -29 4 -35 50 -4 27 -6 71 -5 97 2 27 2 54 1 61 -3 27 -37 9 -88 -45z m2730
-65 c2 -7 -1 -20 -6 -29 -8 -13 -1 -28 36 -70 47 -54 51 -69 17 -69 -30 0 -13
-28 21 -35 16 -4 36 -13 44 -22 20 -19 20 -44 0 -37 -26 10 -17 -26 10 -38 14
-6 25 -15 25 -20 0 -17 -48 -7 -81 17 -19 13 -44 30 -56 36 -17 9 -20 18 -16
45 4 24 1 40 -11 53 -12 13 -16 34 -15 72 1 30 -2 66 -6 82 -6 23 -4 27 13 27
11 0 22 -6 25 -12z m-2819 -172 c9 -30 16 -75 16 -101 0 -38 -3 -46 -17 -43
-10 2 -20 17 -24 36 -13 63 -19 45 -16 -50 2 -98 -4 -121 -26 -99 -22 22 -15
157 12 239 13 39 27 72 32 72 4 0 15 -24 23 -54z m3026 -288 c0 -10 14 -25 31
-34 33 -16 33 -18 13 -97 -5 -22 -1 -34 16 -52 20 -21 22 -29 12 -47 -6 -13
-13 -35 -16 -51 -9 -37 -73 -137 -89 -137 -9 0 -13 22 -12 79 0 75 -2 81 -29
110 -28 29 -29 34 -19 64 7 17 12 49 11 70 0 29 6 42 26 58 27 21 34 57 15 76
-7 7 -8 20 -5 30 7 15 10 13 26 -17 11 -19 19 -43 20 -52z m-2897 -159 c8 -73
4 -109 -24 -196 -28 -87 -40 -93 -75 -41 -25 37 -29 52 -27 104 0 34 8 74 16
90 28 54 78 115 90 111 7 -2 15 -33 20 -68z m3084 -175 c3 -9 0 -47 -7 -85
-10 -54 -11 -75 -1 -95 10 -22 8 -32 -9 -61 -13 -22 -20 -52 -20 -83 0 -46 -2
-49 -47 -79 -74 -49 -78 -44 -33 52 17 36 30 70 30 76 0 5 8 16 18 23 9 7 24
22 32 32 14 18 13 19 -9 13 -21 -5 -23 -3 -17 26 17 89 18 107 8 107 -14 0
-22 -25 -22 -71 0 -46 -24 -55 -34 -13 -13 52 -26 11 -16 -50 7 -46 6 -64 -6
-87 -14 -28 -34 -39 -34 -19 0 6 -7 10 -15 10 -20 0 -19 19 3 43 13 14 17 36
17 88 0 64 2 71 25 82 14 7 35 33 48 60 19 41 26 47 53 47 18 0 32 -6 36 -16z
m-352 -14 c3 -5 15 -10 25 -10 28 0 53 -43 45 -78 -7 -34 14 -62 47 -62 17 0
19 -4 13 -22 -4 -13 -11 -50 -15 -83 -12 -86 -21 -116 -34 -112 -6 2 -10 19
-8 40 7 80 -55 274 -80 249 -9 -9 -6 -34 10 -102 23 -94 29 -170 13 -170 -15
0 -46 50 -61 98 -11 35 -11 50 -1 78 10 27 10 38 1 49 -9 11 -9 23 -1 46 6 18
11 45 11 60 0 29 22 40 35 19z m-2840 -120 c19 -38 28 -78 37 -161 13 -132 6
-150 -43 -103 -52 49 -73 138 -57 238 15 95 26 99 63 26z m137 -45 c16 -40 19
-67 16 -130 -2 -44 -11 -91 -18 -105 l-14 -25 -7 40 c-5 22 -5 61 -2 88 3 28
2 47 -4 47 -16 0 -24 -70 -17 -139 8 -73 -11 -86 -22 -16 -14 99 12 301 38
293 6 -2 20 -26 30 -53z m-264 -70 c44 -37 82 -119 82 -177 0 -26 -2 -48 -5
-48 -15 0 -63 31 -87 57 -42 44 -67 123 -59 186 2 16 41 6 69 -18z m3140 -128
c2 -14 -2 -35 -7 -46 -8 -14 -8 -27 1 -45 14 -32 20 -32 66 -1 36 25 62 32 62
18 0 -12 -62 -59 -88 -67 -29 -10 -28 -34 2 -48 37 -16 39 -35 10 -74 -19 -24
-25 -41 -20 -59 3 -14 9 -35 12 -48 4 -19 -1 -26 -31 -40 -19 -9 -42 -17 -50
-17 -25 0 -22 34 7 68 30 35 34 55 18 98 -7 18 -7 36 1 58 9 25 8 42 -5 85
-16 56 -21 132 -9 145 13 12 28 0 31 -27z m-183 -47 c9 -18 23 -30 35 -30 26
0 25 -18 -4 -54 -27 -33 -49 -27 -44 12 2 19 -2 27 -12 27 -10 0 -14 -8 -12
-22 4 -26 -18 -71 -47 -97 -12 -11 -21 -31 -21 -45 0 -31 -30 -95 -61 -127
-20 -21 -21 -30 -15 -94 6 -65 5 -71 -11 -68 -15 3 -18 16 -21 92 -3 83 -1 90
28 135 25 40 30 58 30 107 0 68 11 85 50 77 37 -7 58 24 53 77 -3 35 -1 40 16
40 13 0 27 -12 36 -30z m115 -115 c0 -13 -5 -36 -12 -50 -10 -21 -9 -31 5 -55
25 -41 21 -54 -23 -90 -43 -35 -50 -54 -24 -68 24 -13 13 -45 -21 -61 -37 -17
-46 -31 -39 -54 12 -38 -5 -68 -52 -89 -25 -11 -52 -17 -59 -14 -19 7 -35 70
-35 142 0 53 4 66 30 99 17 21 30 43 30 50 0 7 9 24 20 38 11 14 26 42 33 63
9 27 18 39 30 38 11 -1 29 14 44 37 31 47 73 55 73 14z m-2671 -99 c46 -110
74 -267 51 -281 -12 -8 -25 25 -34 88 -8 51 -30 105 -71 172 -17 28 -25 55
-25 89 l0 49 25 -23 c13 -12 38 -55 54 -94z m-115 -23 c35 -38 66 -84 80 -120
26 -63 43 -153 30 -153 -21 0 -107 86 -128 129 -41 82 -72 219 -48 209 5 -1
35 -31 66 -65z m-134 -22 c14 -10 26 -28 28 -40 3 -19 0 -22 -17 -16 -40 12
-20 -19 50 -80 38 -33 69 -65 69 -72 1 -43 -90 1 -130 63 -16 27 -30 54 -30
61 0 8 -9 31 -20 53 -11 22 -20 44 -20 50 0 14 37 4 70 -19z m2556 -192 c1
-30 2 -60 3 -67 1 -7 17 -22 36 -33 19 -12 35 -29 35 -38 0 -9 -24 -40 -53
-67 -38 -35 -56 -60 -61 -85 -5 -29 -14 -39 -54 -58 -29 -14 -71 -25 -109 -27
-55 -3 -63 -2 -63 14 0 10 7 28 16 40 8 12 18 41 22 64 7 40 10 43 41 46 l33
3 -7 45 c-9 61 12 94 60 94 29 0 35 4 40 25 3 14 8 37 11 52 15 72 48 66 50
-8z m-2078 -115 c29 -25 63 -64 77 -87 31 -54 67 -169 56 -180 -5 -5 -28 28
-52 73 -30 56 -59 95 -92 122 -26 22 -54 56 -62 75 -19 44 -19 43 3 43 9 0 41
-21 70 -46z m-106 -53 c18 -15 43 -33 55 -40 42 -21 154 -193 138 -209 -4 -4
-14 2 -23 14 -10 12 -44 55 -77 97 -55 71 -75 90 -75 69 0 -15 84 -135 118
-169 23 -23 39 -32 52 -28 21 7 34 -9 26 -31 -7 -19 -25 -10 -105 51 -81 62
-95 81 -134 175 -45 108 -38 126 25 71z m-136 -50 c41 -19 49 -27 135 -144 41
-56 61 -73 119 -102 63 -32 84 -55 62 -69 -11 -7 -205 68 -239 92 -15 11 -38
31 -50 44 -25 27 -103 167 -103 186 0 17 28 15 76 -7z m2483 -13 c15 -9 29 -9
61 1 53 16 68 5 49 -35 -11 -20 -26 -30 -63 -39 -55 -14 -69 -29 -62 -67 5
-24 0 -30 -34 -48 -22 -11 -47 -31 -56 -45 -20 -31 -39 -33 -29 -2 4 12 8 35
10 51 3 30 60 89 98 101 19 7 22 21 6 30 -10 7 -76 -31 -116 -68 -13 -11 -25
-19 -27 -16 -5 5 16 90 27 106 5 7 19 10 35 7 20 -4 33 0 46 15 22 24 29 25
55 9z m-215 -184 c55 -8 59 -24 12 -52 -19 -12 -45 -37 -58 -57 -24 -37 -39
-44 -98 -48 -56 -3 -47 15 24 51 36 18 66 37 66 42 0 15 -23 12 -46 -5 -26
-20 -34 -19 -34 6 0 26 -22 20 -35 -10 -10 -23 -46 -38 -64 -26 -38 23 28 84
92 86 18 0 41 4 52 9 26 11 33 11 89 4z m-1554 -108 c70 -29 94 -46 138 -93
54 -59 88 -111 78 -120 -3 -3 -29 16 -57 41 -29 26 -95 68 -146 93 -51 25
-100 55 -108 66 -18 26 -20 61 -2 54 6 -3 50 -22 97 -41z m1050 -34 c0 -29 21
-42 70 -42 56 0 73 -10 68 -41 -2 -15 -19 -32 -48 -49 -39 -23 -45 -30 -42
-57 4 -44 -34 -66 -113 -65 -61 0 -105 -16 -105 -41 -1 -37 -17 -42 -137 -42
-65 0 -124 -2 -132 -5 -30 -10 -22 31 11 63 19 18 48 49 63 71 18 23 47 46 75
58 25 10 51 26 57 35 7 9 32 19 55 22 37 5 45 11 63 45 14 27 31 43 55 52 49
17 60 17 60 -4z m-1115 -57 c28 -8 72 -28 99 -45 87 -56 195 -170 160 -170 -3
0 -24 13 -47 29 -102 69 -294 181 -312 181 -23 0 14 -30 125 -101 129 -84 130
-84 124 -117 -6 -29 -3 -33 25 -45 51 -21 20 -37 -75 -37 -72 0 -88 4 -145 33
-73 37 -186 137 -175 155 4 7 25 12 48 12 32 0 50 -8 88 -40 69 -58 190 -110
190 -82 0 4 -23 18 -51 31 -28 14 -62 33 -75 44 -32 25 -134 153 -134 167 0
14 78 6 155 -15z m1300 -125 c17 -11 38 -20 48 -20 30 0 18 -30 -18 -45 -19
-8 -39 -24 -45 -34 -23 -44 -39 -51 -115 -51 -71 0 -105 -13 -105 -40 0 -13
-39 -23 -66 -16 -33 9 -30 26 10 65 28 27 40 32 61 27 32 -8 98 11 125 36 11
10 20 31 20 46 0 53 34 66 85 32z"/>
<path d="M5695 2787 c-11 -17 -25 -45 -31 -62 -7 -19 -18 -30 -30 -30 -15 0
-20 -9 -25 -45 -3 -25 -20 -71 -38 -103 -22 -38 -30 -62 -24 -68 16 -16 36 -1
68 47 17 25 38 50 48 55 21 12 22 29 1 29 -9 0 -14 3 -12 8 2 4 17 36 35 72
48 100 55 174 8 97z"/>
<path d="M4730 1834 c-69 -36 -147 -80 -175 -98 -27 -18 -62 -41 -77 -50 -26
-15 -39 -46 -19 -46 4 0 57 25 117 56 94 48 117 55 167 56 39 0 57 4 57 13 0
7 -9 15 -20 18 -27 7 -25 26 5 37 38 14 105 59 105 70 0 21 -39 7 -160 -56z"/>
<path d="M2450 5174 c-39 -27 -120 -107 -120 -120 0 -7 57 -64 128 -126 70
-63 154 -141 187 -172 l60 -57 34 37 35 38 -59 53 c-32 29 -52 53 -45 53 7 0
44 -14 82 -32 l69 -31 37 36 c20 20 34 38 32 41 -3 2 -43 20 -90 39 l-85 35
-5 49 c-9 78 -40 123 -107 157 -42 21 -121 21 -153 0z"/>
<path d="M6068 5023 c-57 -54 -139 -131 -183 -171 l-79 -72 35 -36 36 -36 69
66 c38 36 70 62 72 56 2 -6 -17 -45 -42 -89 -25 -43 -46 -84 -46 -91 0 -8 10
-24 21 -36 l21 -23 82 60 c158 116 316 241 316 251 0 5 -14 27 -32 48 l-32 38
-78 -65 c-43 -36 -78 -60 -78 -54 0 6 21 52 46 102 l45 91 -27 29 c-15 16 -31
29 -35 29 -4 0 -54 -44 -111 -97z"/>
<path d="M2115 4819 c-21 -28 -34 -54 -29 -58 44 -39 437 -292 443 -285 35 40
132 166 129 167 -2 1 -18 16 -36 32 l-34 30 -39 -45 -38 -44 -28 20 c-15 12
-91 65 -168 119 -77 54 -145 102 -151 106 -6 5 -25 -10 -49 -42z"/>
<path d="M6348 4833 c-23 -20 -112 -87 -195 -149 -84 -63 -153 -117 -153 -120
0 -5 88 -131 106 -153 4 -4 82 48 89 59 2 4 -8 23 -22 44 l-27 37 30 24 c16
13 32 24 36 25 3 0 16 -16 28 -35 12 -19 26 -35 31 -35 6 0 27 12 47 27 20 15
39 28 41 30 2 1 -6 14 -16 30 -11 15 -23 33 -27 40 -8 15 63 71 72 57 4 -6 17
-23 29 -38 l22 -27 41 27 c22 15 39 30 38 33 -8 19 -114 161 -120 161 -3 0
-26 -16 -50 -37z"/>
<path d="M6395 4569 c-77 -67 -165 -142 -195 -168 l-54 -47 14 -33 c9 -22 18
-31 29 -28 92 29 151 43 151 36 0 -4 -29 -29 -65 -55 -36 -26 -65 -49 -65 -50
0 -3 32 -79 35 -82 1 -1 103 22 226 53 123 30 234 58 247 60 27 7 29 39 5 89
-18 38 -18 38 -128 10 -27 -7 -52 -10 -55 -7 -3 2 9 16 25 30 104 89 97 79 79
115 -9 18 -18 34 -19 36 -1 1 -32 -7 -69 -18 -101 -32 -111 -23 -38 33 34 27
62 55 62 64 0 13 -37 84 -43 83 -1 -1 -65 -55 -142 -121z"/>
<path d="M1974 4604 c-14 -24 -27 -52 -28 -61 0 -10 64 -69 161 -147 89 -72
180 -148 202 -170 l39 -38 27 51 26 52 -22 18 c-19 15 -20 20 -8 40 11 18 20
21 46 16 29 -5 34 -2 63 40 18 26 30 49 27 51 -5 5 -310 123 -434 167 l-73 26
-26 -45z"/>
<path d="M1917 4360 c-57 -10 -88 -39 -124 -110 -55 -113 -61 -102 79 -153
223 -81 369 -129 382 -124 6 3 17 21 23 41 13 42 9 47 -67 71 -30 10 -59 21
-64 26 -13 12 -4 11 74 -6 36 -8 70 -14 76 -15 13 0 50 77 41 86 -4 4 -50 11
-104 15 -54 5 -103 11 -109 13 -6 2 -14 23 -17 46 -11 82 -91 128 -190 110z"/>
<path d="M6670 4109 c-109 -93 -122 -99 -249 -130 -51 -13 -95 -29 -98 -35 -2
-7 1 -30 6 -52 l11 -40 118 30 117 31 147 -28 c81 -16 150 -26 153 -23 3 3 0
27 -7 53 -14 52 -23 58 -105 70 -29 4 -53 10 -53 14 0 3 25 21 55 39 30 18 55
35 55 37 0 12 -44 115 -49 115 -3 -1 -49 -37 -101 -81z"/>
<path d="M1729 4063 c-16 -43 -49 -166 -49 -184 0 -9 10 -19 23 -21 12 -3 122
-33 244 -67 122 -33 228 -61 236 -61 8 0 21 33 35 93 12 50 22 97 22 103 0 12
-98 46 -104 36 -2 -4 -9 -26 -15 -50 -11 -39 -14 -42 -39 -36 -63 16 -75 23
-68 47 4 12 9 36 12 52 6 29 4 31 -40 43 -58 15 -66 15 -66 0 0 -7 -5 -29 -10
-50 -10 -36 -11 -36 -48 -26 -20 5 -40 13 -45 17 -4 4 -1 29 7 55 l15 48 -34
14 c-49 20 -64 18 -76 -13z"/>
<path d="M6567 3845 c-70 -18 -162 -76 -182 -116 -19 -36 -19 -80 0 -125 22
-54 85 -78 205 -78 164 1 283 53 315 138 17 45 17 46 -6 93 -34 68 -87 96
-194 100 -47 1 -104 -4 -138 -12z m228 -109 c10 -7 16 -20 12 -28 -17 -46
-213 -91 -295 -69 -31 9 -42 17 -40 28 5 24 51 54 105 69 65 17 194 18 218 0z"/>
<path d="M1758 3771 c-89 -29 -122 -77 -134 -195 -5 -51 -4 -67 7 -70 12 -4
93 -12 457 -42 l72 -6 0 93 0 93 -48 46 c-29 28 -69 54 -98 64 -55 20 -215 30
-256 17z m243 -127 c20 -12 35 -29 37 -43 3 -22 1 -23 -30 -18 -18 3 -81 9
-141 13 -59 3 -110 10 -112 14 -9 15 7 39 33 49 44 17 174 8 213 -15z"/>
<path d="M6655 3513 c-132 -14 -241 -26 -243 -28 -2 -2 0 -24 4 -50 l7 -48 66
6 c59 5 64 4 46 -9 -11 -8 -41 -23 -67 -32 l-48 -17 0 -47 0 -48 83 31 c115
43 124 45 150 22 36 -34 63 -43 120 -43 64 0 112 18 147 55 20 21 25 39 28 95
6 100 -3 140 -31 139 -12 -1 -130 -13 -262 -26z"/>
<path d="M1615 3339 c-4 -61 -4 -113 -1 -117 12 -12 530 -1 538 11 4 7 8 54 8
105 l0 92 -60 0 -60 0 0 -45 0 -45 -60 0 -60 0 0 50 0 50 -61 0 -62 0 5 -49 5
-49 -39 -4 -38 -4 0 52 c0 50 -1 52 -31 58 -78 15 -76 18 -84 -105z"/>
<path d="M6658 3233 l-238 -3 0 -55 0 -54 98 -3 97 -3 -100 -26 -100 -25 -7
-59 c-4 -32 -6 -60 -4 -62 2 -2 80 17 174 43 l171 47 91 -78 c50 -43 92 -76
94 -74 2 2 6 36 10 75 l6 71 -60 40 c-32 22 -56 43 -53 47 3 3 33 6 65 6 l59
0 -3 58 c-3 56 -4 57 -33 57 -16 1 -137 -1 -267 -2z"/>
<path d="M1652 3183 l-44 -4 6 -47 c3 -26 8 -82 12 -126 l7 -78 66 7 c171 16
428 46 449 50 19 5 22 12 22 53 0 76 -3 77 -114 64 -141 -18 -136 -19 -136 27
0 22 -4 42 -9 45 -4 3 -31 3 -58 -1 l-50 -5 5 -49 5 -49 -41 0 -41 0 -3 57
c-3 63 -2 63 -76 56z"/>
<path d="M6565 2865 c-53 -52 -21 -142 54 -152 35 -5 44 -2 71 25 61 62 26
152 -60 152 -30 0 -47 -6 -65 -25z"/>
<path d="M1858 2840 c-25 -26 -29 -36 -24 -62 8 -40 23 -58 63 -74 86 -37 151
70 84 137 -40 40 -82 39 -123 -1z"/>
<path d="M6332 2648 l-22 -52 58 -70 c32 -39 77 -96 100 -127 32 -42 52 -59
82 -68 22 -7 44 -10 48 -7 5 3 21 37 36 75 15 39 29 71 30 71 1 0 31 -12 66
-26 34 -14 68 -23 74 -21 13 5 40 92 32 105 -3 5 -32 17 -66 27 -58 18 -61 20
-55 45 4 18 1 29 -7 33 -7 3 -30 12 -51 21 -37 16 -37 16 -47 -9 -5 -14 -11
-25 -14 -25 -2 0 -56 18 -120 40 -64 22 -117 40 -119 40 -2 0 -13 -23 -25 -52z"/>
<path d="M1980 2577 c-129 -44 -237 -82 -239 -83 -8 -7 23 -96 34 -100 12 -5
462 152 479 167 10 9 -16 92 -30 95 -5 1 -115 -34 -244 -79z"/>
<path d="M2120 2456 c-74 -29 -179 -70 -232 -90 l-97 -38 19 -46 c21 -55 21
-55 138 -5 46 19 86 32 90 29 3 -4 -33 -46 -81 -94 l-86 -87 21 -37 21 -37 86
43 c47 24 151 71 231 106 80 35 149 67 153 70 10 8 -21 90 -34 90 -5 0 -36
-13 -69 -30 -33 -16 -62 -30 -65 -30 -16 0 1 27 47 76 l51 54 -13 40 c-8 25
-19 40 -29 39 -9 0 -77 -24 -151 -53z"/>
<path d="M6232 2365 c-12 -25 -22 -48 -22 -50 0 -3 103 -57 229 -120 l229
-114 21 35 c29 48 35 78 19 90 -7 6 -74 37 -148 69 -74 32 -172 75 -217 97
-45 21 -83 38 -85 38 -2 0 -14 -20 -26 -45z"/>
<path d="M6157 2210 c-60 -47 -75 -131 -34 -191 33 -49 143 -104 191 -95 42 8
104 58 112 91 7 28 29 24 56 -9 25 -31 23 -42 -23 -91 l-41 -44 27 -36 c15
-19 32 -35 38 -35 18 0 78 51 98 84 29 47 25 113 -10 167 -39 61 -63 80 -161
130 -71 37 -96 44 -155 47 -60 3 -74 1 -98 -18z"/>
<path d="M2280 2193 c-46 -9 -144 -55 -193 -90 -118 -87 -129 -189 -28 -256
22 -15 44 -27 48 -27 5 0 18 18 30 41 l22 40 -32 29 -32 28 21 29 c33 44 155
103 215 103 44 0 49 -3 55 -25 6 -22 11 -25 55 -25 l49 0 0 43 c0 23 -7 53
-16 66 -30 43 -106 60 -194 44z"/>
<path d="M6018 1986 c-16 -19 -28 -39 -28 -43 1 -14 389 -293 407 -293 10 0
63 73 63 86 0 9 -10 17 -217 159 -100 69 -185 125 -190 125 -4 0 -20 -16 -35
-34z"/>
<path d="M2369 1992 c-157 -63 -277 -219 -234 -302 34 -66 101 -83 202 -51 76
23 136 59 201 123 84 81 104 161 55 214 -24 26 -33 29 -102 32 -55 1 -89 -3
-122 -16z m151 -97 c0 -60 -193 -197 -255 -181 -15 4 -25 13 -25 25 0 19 31
64 65 93 35 31 157 88 186 88 24 0 29 -4 29 -25z"/>
<path d="M2495 1699 c-104 -82 -193 -153 -198 -158 -5 -5 4 -23 21 -42 l30
-33 56 43 c31 24 59 41 62 38 3 -3 -11 -33 -32 -67 l-38 -61 39 -35 c21 -19
42 -34 46 -34 4 0 30 40 59 89 l52 88 49 6 c90 11 153 80 153 168 0 42 -6 55
-41 96 -22 26 -46 49 -54 50 -8 1 -99 -66 -204 -148z"/>
<path d="M5855 1799 c-43 -25 -85 -74 -91 -106 -7 -39 17 -111 45 -137 10 -10
32 -21 47 -25 22 -5 32 -17 42 -46 17 -51 55 -101 92 -120 48 -25 127 -19 173
12 48 33 69 73 70 133 1 82 -58 151 -141 165 -32 5 -41 12 -57 48 -11 22 -31
49 -45 59 -32 23 -108 32 -135 17z"/>
<path d="M2687 1492 l-178 -178 29 -27 c15 -15 32 -27 36 -27 5 0 37 27 73 60
65 61 77 68 88 50 3 -5 28 -10 54 -10 38 0 59 7 97 33 88 59 115 128 75 193
-16 27 -79 84 -92 84 -2 0 -84 -80 -182 -178z"/>
<path d="M5644 1596 l-38 -33 54 -70 c188 -241 246 -312 255 -312 6 0 27 15
49 34 l38 34 -30 41 c-29 40 -282 340 -287 340 -1 0 -19 -15 -41 -34z"/>
<path d="M5491 1490 c-24 -16 -45 -30 -47 -32 -2 -2 3 -35 11 -73 8 -38 11
-73 6 -78 -4 -4 -35 15 -69 43 l-61 51 -50 -23 c-28 -12 -51 -27 -51 -32 0 -6
61 -51 135 -101 l136 -90 45 -92 46 -92 49 25 c27 15 49 31 49 38 0 7 -20 45
-45 85 -53 87 -51 80 -74 256 -9 76 -21 140 -26 141 -6 1 -30 -11 -54 -26z"/>
<path d="M2999 1461 c-57 -36 -151 -136 -177 -188 -34 -66 -46 -126 -33 -166
14 -42 42 -62 99 -72 94 -15 235 93 298 230 27 56 32 151 12 177 -46 56 -128
64 -199 19z m111 -98 c0 -42 -37 -108 -95 -169 -43 -46 -57 -55 -81 -52 -39 4
-43 36 -10 92 36 61 73 104 115 131 49 33 71 32 71 -2z"/>
<path d="M3162 1178 c-67 -112 -122 -207 -123 -212 -1 -8 73 -56 85 -56 2 0
23 35 46 78 48 86 48 87 55 81 2 -3 -7 -46 -20 -97 l-23 -93 35 -14 c48 -20
63 -19 63 5 0 12 9 59 21 105 20 78 23 84 51 90 16 4 45 20 64 37 59 52 66
134 15 194 -18 22 -120 84 -137 84 -5 0 -64 -91 -132 -202z"/>
<path d="M5125 1303 c-16 -8 -31 -16 -32 -17 -1 -1 11 -87 28 -191 16 -105 33
-216 36 -248 3 -32 9 -59 12 -61 3 -2 30 5 59 16 50 19 52 21 52 57 0 35 3 38
46 54 l45 17 22 -26 22 -25 47 21 c26 11 50 25 54 31 5 9 -69 98 -197 234 -31
33 -74 81 -95 107 -43 51 -54 55 -99 31z"/>
<path d="M3524 1208 c-15 -24 -50 -79 -79 -123 -114 -176 -155 -242 -155 -248
0 -7 66 -37 79 -37 4 0 14 13 24 29 17 28 18 29 59 16 41 -12 43 -14 44 -51 0
-34 4 -39 40 -55 73 -33 68 -45 87 219 10 130 17 244 17 253 0 10 -15 20 -39
27 -51 16 -47 18 -77 -30z"/>
<path d="M4930 1236 l-35 -13 2 -112 c1 -61 -1 -111 -5 -111 -4 0 -31 43 -61
96 l-53 96 -41 -6 c-23 -4 -43 -9 -45 -11 -4 -4 49 -277 79 -408 l21 -89 37 7
c51 9 71 15 71 23 -1 4 -9 43 -20 87 -10 44 -16 82 -13 85 3 3 7 0 10 -6 9
-26 75 -124 84 -124 5 0 10 24 10 53 2 64 13 118 22 97 3 -8 13 -48 22 -87 10
-40 21 -73 26 -73 31 0 99 26 95 37 -3 6 -10 31 -16 55 -18 66 -107 360 -119
391 -12 30 -20 31 -71 13z"/>
<path d="M3676 1169 c-8 -50 -5 -55 37 -63 l34 -6 -19 -98 c-10 -53 -29 -142
-42 -197 -17 -69 -21 -102 -14 -107 19 -11 100 -20 108 -11 5 4 25 93 46 196
l38 188 42 -7 41 -6 7 47 c4 26 6 48 4 50 -4 4 -252 55 -266 55 -5 0 -12 -18
-16 -41z"/>
<path d="M3976 1138 c-5 -16 -37 -423 -36 -460 0 -26 2 -26 78 -33 42 -3 94
-8 115 -11 l38 -6 -3 59 -3 58 -52 3 -53 3 0 37 c0 20 3 48 7 60 5 22 9 23 51
17 54 -8 62 0 62 69 l0 49 -50 -6 -50 -6 0 38 0 39 53 -2 52 -1 3 46 3 46 -38
7 c-68 11 -173 7 -177 -6z"/>
<path d="M4212 888 l3 -253 81 2 c116 2 157 27 207 128 35 71 43 149 22 221
-34 118 -88 154 -230 154 l-85 0 2 -252z m162 147 c25 -25 39 -95 33 -167 -5
-79 -26 -118 -62 -118 l-25 0 0 150 c0 141 1 150 19 150 11 0 27 -7 35 -15z"/>
</g>
</svg>
