<?xml version="1.0" standalone="no"?>
<!DOCTYPE svg PUBLIC "-//W3C//DTD SVG 20010904//EN"
 "http://www.w3.org/TR/2001/REC-SVG-20010904/DTD/svg10.dtd">
<svg version="1.0" xmlns="http://www.w3.org/2000/svg"
 width="1476.000000pt" height="106.000000pt" viewBox="0 0 1476.000000 106.000000"
 preserveAspectRatio="xMidYMid meet">
<metadata>
Created by potrace 1.16, written by Peter Selinger 2001-2019
</metadata>
<g transform="translate(0.000000,106.000000) scale(0.100000,-0.100000)"
fill="#000000" stroke="none">
<path d="M3611 1015 c-11 -19 -25 -35 -31 -35 -6 0 -27 12 -46 26 -38 29 -101
41 -160 30 -40 -8 -144 -97 -144 -124 0 -9 -13 -39 -30 -69 -16 -29 -30 -64
-30 -77 0 -14 -4 -36 -9 -49 -14 -36 -15 -120 -2 -222 12 -94 47 -181 95 -237
74 -83 221 -95 297 -22 l26 25 27 -41 c27 -40 49 -50 62 -28 5 7 7 71 6 142
-3 168 -3 168 56 161 57 -7 77 4 69 36 -8 33 -44 54 -63 38 -11 -9 -21 -9 -44
1 -21 9 -52 10 -98 6 -37 -4 -86 -8 -110 -10 -24 -2 -48 -8 -54 -14 -17 -17
-1 -42 26 -42 14 0 28 -4 31 -10 3 -5 20 -10 36 -10 36 0 48 -24 25 -49 -9
-10 -16 -27 -16 -39 0 -12 -19 -42 -42 -66 -36 -37 -49 -44 -80 -44 -21 0 -38
4 -38 9 0 5 -9 9 -19 9 -11 0 -23 9 -26 20 -3 11 -12 20 -19 20 -8 0 -19 6
-26 14 -19 23 -40 142 -46 259 -4 92 -3 107 10 107 9 0 16 9 16 20 0 30 28 81
60 111 15 14 29 31 31 37 2 7 17 15 33 18 16 3 33 7 37 10 5 2 15 -6 24 -20
11 -16 22 -22 35 -19 13 3 22 -1 27 -13 3 -9 24 -35 44 -55 21 -21 41 -51 44
-66 14 -66 45 -88 77 -56 19 20 20 26 10 61 -19 61 -25 152 -14 214 13 84 -18
108 -57 43z"/>
<path d="M5701 1029 c-118 -23 -198 -142 -222 -332 -5 -43 -7 -87 -4 -96 3
-10 -1 -24 -10 -31 -17 -14 -20 -46 -4 -55 6 -4 8 -14 4 -22 -3 -9 2 -24 12
-35 14 -16 15 -23 5 -38 -17 -27 -15 -37 8 -43 13 -3 20 -14 20 -31 0 -15 8
-30 20 -36 21 -11 28 -40 10 -40 -5 0 -10 -4 -10 -10 0 -5 7 -10 16 -10 9 0
31 -9 48 -19 37 -23 106 -42 160 -45 51 -3 101 14 170 59 47 30 56 40 56 65 0
18 5 30 13 30 7 0 17 22 24 53 6 28 18 81 26 117 15 65 13 158 -3 195 -8 18
-20 68 -37 160 -7 41 -55 89 -128 129 -69 39 -112 47 -174 35z m97 -130 c34
-11 68 -29 75 -38 6 -10 20 -20 30 -24 9 -3 17 -15 17 -25 0 -10 9 -27 20 -37
12 -10 18 -25 15 -33 -3 -8 -1 -20 5 -27 15 -18 14 -208 -1 -252 -20 -61 -74
-148 -94 -151 -11 -2 -27 -10 -35 -16 -8 -7 -37 -13 -64 -14 -45 -2 -52 2 -92
41 -24 24 -54 48 -67 54 -20 10 -25 21 -31 70 -4 32 -9 78 -12 103 -13 105 -3
183 37 287 4 12 26 31 48 42 22 12 42 25 46 31 9 15 34 12 103 -11z"/>
<path d="M1770 1023 c-63 -2 -119 -8 -123 -12 -14 -14 24 -91 48 -96 11 -3 52
-4 90 -3 l70 3 3 -70 c4 -94 4 -75 -1 -301 -3 -110 -7 -210 -11 -221 -8 -25
-55 -39 -131 -37 -34 0 -63 -4 -67 -10 -13 -18 -9 -76 5 -77 43 -3 123 -1 189
4 49 4 80 2 84 -5 4 -6 22 -7 48 -3 22 4 74 9 114 11 84 4 92 7 92 38 0 28
-29 37 -125 40 -33 1 -69 5 -81 9 -41 14 -44 43 -41 345 l2 287 85 2 c72 1 87
4 101 22 10 12 22 21 27 21 16 0 23 31 11 46 -12 14 -76 15 -389 7z"/>
<path d="M2353 1022 c-27 -2 -43 -9 -48 -20 -6 -17 18 -42 41 -42 7 0 16 -9
19 -20 7 -23 7 -23 113 -28 l32 -2 0 -302 c0 -167 -4 -309 -9 -317 -6 -10 -22
-12 -55 -9 -48 6 -117 -9 -137 -29 -22 -22 -2 -43 39 -43 21 0 43 -5 48 -10 8
-8 19 -8 38 0 35 13 93 13 101 0 4 -7 13 -6 27 1 11 6 40 8 67 5 25 -3 51 -6
56 -6 26 -3 144 36 176 57 20 13 45 41 55 61 10 20 24 44 29 52 25 35 35 93
37 215 1 120 -1 136 -26 205 -42 116 -79 166 -145 199 -54 27 -63 28 -236 32
-99 3 -199 3 -222 1z m474 -158 c60 -66 85 -135 86 -239 1 -106 -12 -163 -56
-236 -39 -65 -103 -106 -173 -111 l-48 -3 -24 50 c-19 39 -22 57 -16 85 4 19
8 125 10 236 1 110 5 210 8 221 8 26 57 41 124 38 48 -2 57 -5 89 -41z"/>
<path d="M3851 1021 c-8 -5 -11 -16 -8 -25 5 -13 23 -16 91 -16 71 0 85 -3 91
-17 5 -15 4 -16 -6 -5 -15 14 -52 16 -77 3 -9 -5 -25 -12 -35 -15 -23 -7 -17
-30 8 -35 11 -2 36 -14 58 -28 l38 -24 -1 -187 c-1 -103 1 -195 5 -205 4 -9 2
-24 -4 -31 -7 -8 -15 -46 -18 -85 l-6 -71 -56 0 c-56 0 -81 -11 -81 -37 0 -27
55 -39 214 -46 27 -1 55 3 61 9 8 8 26 9 61 3 27 -5 78 -12 114 -15 35 -3 70
-10 78 -16 13 -11 23 -8 102 33 l35 18 9 113 c9 122 -2 198 -29 198 -8 0 -15
-8 -15 -18 0 -30 -13 -35 -31 -11 -16 22 -17 22 -42 3 -18 -13 -26 -28 -26
-49 1 -55 -13 -114 -32 -131 -10 -9 -36 -18 -56 -20 -81 -6 -121 -16 -127 -29
-8 -22 -32 -18 -61 9 -26 25 -27 27 -23 140 2 67 8 120 14 126 8 8 26 8 65 -2
54 -13 60 -21 45 -58 -4 -9 5 -29 23 -50 26 -31 31 -34 57 -25 l29 10 5 120
c3 66 3 161 0 210 -5 82 -7 90 -25 90 -14 0 -22 -9 -26 -30 -4 -16 -7 -26 -8
-21 -3 22 -29 -18 -41 -64 -8 -28 -20 -52 -29 -54 -55 -15 -79 -16 -90 -3 -17
21 -37 185 -23 199 7 7 37 7 99 0 48 -6 100 -8 114 -5 34 6 79 -45 79 -91 0
-52 21 -71 75 -70 28 1 50 7 56 15 12 19 -1 282 -15 291 -16 11 -618 9 -635
-1z"/>
<path d="M9470 1023 c-63 -2 -119 -8 -123 -12 -14 -14 24 -91 48 -96 11 -3 52
-4 90 -3 l70 3 3 -70 c4 -94 4 -75 -1 -301 -3 -110 -7 -210 -11 -221 -8 -25
-55 -39 -131 -37 -34 0 -63 -4 -67 -10 -13 -18 -9 -76 5 -77 43 -3 123 -1 189
4 49 4 80 2 84 -5 4 -6 22 -7 48 -3 22 4 74 9 114 11 84 4 92 7 92 38 0 28
-29 37 -125 40 -33 1 -69 5 -81 9 -41 14 -44 43 -41 345 l2 287 85 2 c72 1 87
4 101 22 10 12 22 21 27 21 16 0 23 31 11 46 -12 14 -76 15 -389 7z"/>
<path d="M4 1005 c-7 -18 3 -35 22 -35 8 0 14 -10 14 -23 0 -37 17 -45 80 -40
l58 6 7 -73 c4 -40 4 -180 0 -311 -7 -225 -8 -239 -26 -239 -11 0 -27 -4 -37
-9 -9 -6 -39 -13 -65 -16 -48 -6 -70 -26 -50 -46 14 -14 369 -21 475 -11 106
11 140 33 181 113 31 62 33 75 12 83 -8 3 -15 12 -15 21 0 8 7 15 15 15 8 0
15 7 15 15 0 28 -51 138 -73 155 l-21 17 24 49 c33 69 38 159 12 210 -26 51
-44 66 -122 103 l-65 31 -218 0 c-181 0 -219 -2 -223 -15z m389 -114 c15 -13
20 -13 27 -2 7 12 16 12 54 1 26 -7 51 -21 56 -31 26 -47 -2 -139 -49 -163
-41 -21 -109 -30 -126 -16 -12 10 -18 10 -30 0 -31 -26 -45 -5 -44 67 1 38 0
84 -3 103 -3 19 -1 40 4 47 13 17 89 13 111 -6z m72 -321 c8 -6 19 -9 24 -5 6
3 27 -9 46 -27 96 -88 37 -243 -100 -263 -11 -1 -28 -6 -38 -10 -9 -4 -25 -4
-35 1 -9 4 -24 8 -31 8 -26 2 -55 65 -52 115 1 25 7 51 13 58 8 10 6 19 -7 33
-15 16 -16 25 -7 44 6 13 8 33 5 44 -5 20 -1 20 81 17 48 -1 93 -8 101 -15z"/>
<path d="M780 995 c0 -18 5 -25 20 -25 14 0 19 -6 17 -19 -1 -14 13 -27 53
-49 l55 -30 2 -203 c3 -274 -3 -331 -33 -364 -17 -19 -30 -24 -47 -20 -18 5
-28 0 -40 -19 -10 -14 -17 -30 -17 -36 0 -19 66 -35 145 -34 179 1 205 3 212
20 8 22 -63 83 -97 84 -50 1 -59 19 -59 120 0 14 0 55 0 91 -1 64 0 66 23 62
13 -3 27 0 30 6 5 8 13 8 27 1 10 -6 34 -8 52 -5 29 6 36 2 68 -37 34 -41 36
-48 43 -143 13 -169 34 -195 162 -195 58 0 83 4 87 13 7 18 -66 89 -84 82 -9
-3 -26 6 -39 20 -20 22 -26 40 -30 104 -4 51 -14 92 -28 119 l-21 41 53 54
c74 73 90 108 91 188 0 87 -32 139 -108 175 -50 23 -59 24 -294 24 l-243 0 0
-25z m280 -80 c7 -9 17 -12 24 -7 30 22 143 0 187 -37 29 -24 33 -34 37 -87 3
-55 2 -61 -25 -85 -38 -35 -92 -48 -191 -46 -61 2 -85 6 -93 17 -6 9 -8 56 -6
118 4 80 9 107 23 123 21 23 28 24 44 4z"/>
<path d="M6195 1009 c-11 -17 -10 -78 2 -90 6 -6 36 -11 67 -11 95 -1 91 10
93 -275 0 -136 -3 -265 -8 -285 -12 -46 -30 -57 -81 -50 -31 4 -44 0 -63 -18
-20 -19 -22 -26 -13 -44 6 -11 18 -25 27 -30 21 -13 392 -9 405 4 25 25 -93
116 -135 104 -31 -9 -43 24 -46 131 -2 98 -1 105 20 120 29 21 69 19 99 -5 20
-15 26 -31 31 -76 7 -68 15 -78 50 -65 27 10 27 12 26 103 -2 154 -13 286 -26
299 -21 21 -41 -7 -49 -67 -5 -43 -12 -59 -36 -79 -33 -28 -37 -29 -72 -15
-42 16 -74 114 -41 126 8 4 15 16 15 29 0 54 12 84 40 95 38 16 141 21 157 9
8 -7 18 -7 32 0 11 6 24 11 30 11 17 0 44 -61 52 -115 14 -90 21 -114 36 -126
25 -21 38 6 38 84 0 40 6 82 12 93 10 17 9 25 -2 40 -8 11 -15 38 -15 60 0 29
-5 44 -16 48 -29 11 -622 7 -629 -5z"/>
<path d="M7717 1013 c-4 -3 -7 -13 -7 -21 0 -9 -7 -23 -16 -33 -23 -25 -8 -42
30 -35 25 5 37 2 51 -14 14 -15 20 -17 26 -8 4 7 10 10 12 8 3 -3 7 -139 10
-302 6 -329 10 -350 71 -387 118 -73 332 -33 358 67 5 18 13 32 18 32 5 0 17
17 26 38 14 31 16 77 17 270 0 128 4 235 9 238 4 3 8 17 8 31 0 24 2 25 46 18
32 -4 52 -2 68 8 19 13 25 13 41 1 10 -8 29 -14 42 -14 12 0 26 -8 31 -17 5
-10 13 -145 16 -300 l7 -282 -33 -21 c-18 -11 -40 -20 -50 -20 -18 0 -27 -17
-20 -42 5 -21 44 -25 240 -28 127 -1 152 1 152 13 0 21 -23 37 -64 44 -20 3
-36 10 -36 14 0 5 -15 9 -32 9 -63 0 -61 -6 -66 278 -5 273 1 313 34 225 9
-27 25 -55 35 -64 9 -9 23 -36 29 -60 10 -38 74 -184 101 -229 27 -45 48 -93
69 -159 17 -55 29 -75 47 -82 26 -10 62 1 81 23 17 21 17 199 -1 611 -3 82 8
93 91 88 47 -2 52 0 52 19 0 11 -4 28 -9 38 -5 9 -12 25 -15 35 -5 15 -22 17
-164 17 -158 0 -182 -5 -182 -37 0 -7 7 -13 15 -13 8 0 15 -9 15 -20 0 -11 8
-23 18 -26 9 -3 27 -10 39 -16 11 -6 26 -8 31 -4 33 20 51 -100 51 -342 0
-103 -4 -182 -9 -182 -14 0 -38 40 -56 92 -8 26 -20 48 -25 48 -5 0 -9 8 -9
18 0 10 -4 22 -9 28 -5 5 -16 34 -26 64 -28 88 -136 354 -150 370 -11 12 -37
15 -121 14 -102 0 -108 -1 -128 -26 -18 -22 -24 -24 -41 -14 -11 6 -26 19 -33
29 -11 15 -31 17 -141 17 -106 0 -131 -3 -142 -16 -11 -14 -11 -18 2 -28 8 -6
13 -19 11 -28 -4 -23 45 -48 82 -41 l29 6 -6 -234 c-7 -288 -19 -346 -82 -383
-53 -31 -100 -39 -115 -21 -7 8 -23 15 -36 15 -13 0 -24 4 -24 9 0 5 -18 32
-40 60 -42 52 -48 82 -28 125 9 22 8 29 -6 45 -13 14 -15 25 -8 38 5 10 8 74
6 143 -1 114 0 129 22 173 27 52 26 52 54 35 17 -11 23 -9 42 9 20 21 21 23 5
41 -9 10 -17 23 -17 29 0 6 -7 14 -16 17 -21 8 -269 8 -277 -1z"/>
<path d="M10128 1009 c-10 -5 -18 -19 -18 -30 0 -15 -5 -18 -23 -14 -26 7 -39
-5 -54 -51 -7 -20 -7 -36 -1 -48 7 -13 6 -25 -2 -42 -10 -18 -10 -26 -1 -38 9
-10 10 -32 6 -69 -8 -62 5 -97 35 -97 18 0 20 7 20 62 0 34 3 58 7 54 4 -3 6
-25 4 -47 -2 -38 11 -69 29 -69 4 0 10 51 13 113 3 61 8 119 12 129 3 9 22 19
42 23 28 5 40 2 56 -13 23 -24 31 -134 29 -391 -2 -198 -9 -217 -75 -208 -28
4 -50 1 -69 -11 -31 -18 -44 -41 -25 -47 36 -11 73 -18 82 -16 6 2 96 2 202 2
128 -1 194 2 198 9 4 6 4 22 1 35 -6 23 -10 24 -104 27 l-97 3 -3 134 c-2 85
1 138 8 146 8 9 8 15 0 20 -14 8 -14 311 0 320 18 11 80 -16 98 -43 12 -18 19
-56 22 -120 5 -76 9 -97 24 -108 13 -9 24 -10 36 -4 11 6 21 5 28 -2 6 -6 18
-8 26 -5 13 5 16 28 16 137 l0 131 30 6 c26 5 30 10 30 39 0 24 -5 34 -20 39
-11 3 -24 3 -30 0 -5 -3 -10 3 -10 14 0 11 -9 25 -19 31 -26 13 -480 13 -503
-1z"/>
<path d="M10920 1010 c-122 -5 -124 -5 -131 -30 -12 -43 -10 -59 12 -81 16
-16 29 -20 50 -15 26 5 33 0 59 -36 17 -22 30 -45 30 -51 0 -5 16 -27 35 -48
19 -22 35 -47 35 -57 0 -10 12 -29 26 -43 14 -13 32 -36 39 -50 18 -35 25
-283 8 -300 -6 -6 -31 -13 -55 -15 -95 -8 -93 -7 -96 -37 -6 -48 7 -53 115
-50 102 3 289 11 311 12 6 1 12 11 12 24 0 31 -48 53 -119 56 -30 1 -58 4 -63
7 -14 9 -9 146 6 163 19 21 31 81 17 81 -6 0 -11 -11 -11 -25 0 -14 -4 -25
-10 -25 -5 0 -10 11 -10 23 0 25 24 52 62 71 13 6 24 20 26 31 2 11 8 30 14
42 9 18 8 27 -6 41 -16 18 -15 21 4 43 19 23 21 23 31 5 10 -17 12 -16 30 10
21 32 25 69 9 79 -20 12 -9 26 18 23 20 -2 29 3 37 20 6 13 19 22 32 22 26 0
73 57 73 87 0 29 -17 33 -149 33 -130 0 -147 -6 -157 -56 -6 -32 14 -65 46
-76 18 -6 7 -46 -25 -89 -13 -19 -30 -46 -36 -62 -9 -23 -36 -47 -52 -47 -8 0
-47 79 -47 94 0 7 -11 30 -25 50 l-25 37 22 29 c13 18 31 30 45 30 14 0 23 6
23 15 0 9 -9 15 -25 15 -18 0 -25 5 -25 20 0 30 -26 35 -160 30z"/>
<path d="M31 156 c-7 -8 -11 -32 -9 -53 l3 -38 63 3 c65 4 90 -13 30 -21 -18
-2 12 -4 67 -4 55 0 90 2 78 4 -13 2 -23 9 -23 14 0 6 82 9 220 8 228 -1 250
2 250 40 -1 31 -25 49 -61 48 -18 -1 -37 -5 -40 -10 -12 -16 -421 -5 -427 12
-2 7 -12 5 -27 -5 -24 -16 -51 -11 -40 7 9 13 -9 11 -23 -3 -9 -9 -15 -9 -24
0 -16 16 -23 15 -37 -2z"/>
<path d="M801 156 c-7 -8 -11 -32 -9 -53 l3 -38 63 3 c65 4 90 -13 30 -21 -18
-2 12 -4 67 -4 55 0 90 2 78 4 -13 2 -23 9 -23 14 0 6 82 9 220 8 228 -1 250
2 250 40 -1 31 -25 49 -61 48 -18 -1 -37 -5 -40 -10 -12 -16 -421 -5 -427 12
-2 7 -12 5 -27 -5 -24 -16 -51 -11 -40 7 9 13 -9 11 -23 -3 -9 -9 -15 -9 -24
0 -16 16 -23 15 -37 -2z"/>
<path d="M1571 156 c-7 -8 -11 -32 -9 -53 l3 -38 63 3 c65 4 90 -13 30 -21
-18 -2 12 -4 67 -4 55 0 90 2 78 4 -13 2 -23 9 -23 14 0 6 82 9 220 8 228 -1
250 2 250 40 -1 31 -25 49 -61 48 -18 -1 -37 -5 -40 -10 -12 -16 -421 -5 -427
12 -2 7 -12 5 -27 -5 -24 -16 -51 -11 -40 7 9 13 -9 11 -23 -3 -9 -9 -15 -9
-24 0 -16 16 -23 15 -37 -2z"/>
<path d="M2341 156 c-7 -8 -11 -32 -9 -53 l3 -38 63 3 c65 4 90 -13 30 -21
-18 -2 12 -4 67 -4 55 0 90 2 78 4 -13 2 -23 9 -23 14 0 6 82 9 220 8 228 -1
250 2 250 40 -1 31 -25 49 -61 48 -18 -1 -37 -5 -40 -10 -12 -16 -421 -5 -427
12 -2 7 -12 5 -27 -5 -24 -16 -51 -11 -40 7 9 13 -9 11 -23 -3 -9 -9 -15 -9
-24 0 -16 16 -23 15 -37 -2z"/>
<path d="M3111 156 c-7 -8 -11 -32 -9 -53 l3 -38 63 3 c65 4 90 -13 30 -21
-18 -2 12 -4 67 -4 55 0 90 2 78 4 -13 2 -23 9 -23 14 0 6 82 9 220 8 228 -1
250 2 250 40 -1 31 -25 49 -61 48 -18 -1 -37 -5 -40 -10 -12 -16 -421 -5 -427
12 -2 7 -12 5 -27 -5 -24 -16 -51 -11 -40 7 9 13 -9 11 -23 -3 -9 -9 -15 -9
-24 0 -16 16 -23 15 -37 -2z"/>
<path d="M3881 156 c-7 -8 -11 -32 -9 -53 l3 -38 63 3 c65 4 90 -13 30 -21
-18 -2 12 -4 67 -4 55 0 90 2 78 4 -13 2 -23 9 -23 14 0 6 82 9 220 8 228 -1
250 2 250 40 -1 31 -25 49 -61 48 -18 -1 -37 -5 -40 -10 -12 -16 -421 -5 -427
12 -2 7 -12 5 -27 -5 -24 -16 -51 -11 -40 7 9 13 -9 11 -23 -3 -9 -9 -15 -9
-24 0 -16 16 -23 15 -37 -2z"/>
<path d="M5421 156 c-7 -8 -11 -32 -9 -53 l3 -38 63 3 c65 4 90 -13 30 -21
-18 -2 12 -4 67 -4 55 0 90 2 78 4 -13 2 -23 9 -23 14 0 6 82 9 220 8 228 -1
250 2 250 40 -1 31 -25 49 -61 48 -18 -1 -37 -5 -40 -10 -12 -16 -421 -5 -427
12 -2 7 -12 5 -27 -5 -24 -16 -51 -11 -40 7 9 13 -9 11 -23 -3 -9 -9 -15 -9
-24 0 -16 16 -23 15 -37 -2z"/>
<path d="M6191 156 c-7 -8 -11 -32 -9 -53 l3 -38 63 3 c65 4 90 -13 30 -21
-18 -2 12 -4 67 -4 55 0 90 2 78 4 -13 2 -23 9 -23 14 0 6 82 9 220 8 228 -1
250 2 250 40 -1 31 -25 49 -61 48 -18 -1 -37 -5 -40 -10 -12 -16 -421 -5 -427
12 -2 7 -12 5 -27 -5 -24 -16 -51 -11 -40 7 9 13 -9 11 -23 -3 -9 -9 -15 -9
-24 0 -16 16 -23 15 -37 -2z"/>
<path d="M7731 156 c-7 -8 -11 -32 -9 -53 l3 -38 63 3 c65 4 90 -13 30 -21
-18 -2 12 -4 67 -4 55 0 90 2 78 4 -13 2 -23 9 -23 14 0 6 82 9 220 8 228 -1
250 2 250 40 -1 31 -25 49 -61 48 -18 -1 -37 -5 -40 -10 -12 -16 -421 -5 -427
12 -2 7 -12 5 -27 -5 -24 -16 -51 -11 -40 7 9 13 -9 11 -23 -3 -9 -9 -15 -9
-24 0 -16 16 -23 15 -37 -2z"/>
<path d="M8501 156 c-7 -8 -11 -32 -9 -53 l3 -38 63 3 c65 4 90 -13 30 -21
-18 -2 12 -4 67 -4 55 0 90 2 78 4 -13 2 -23 9 -23 14 0 6 82 9 220 8 228 -1
250 2 250 40 -1 31 -25 49 -61 48 -18 -1 -37 -5 -40 -10 -12 -16 -421 -5 -427
12 -2 7 -12 5 -27 -5 -24 -16 -51 -11 -40 7 9 13 -9 11 -23 -3 -9 -9 -15 -9
-24 0 -16 16 -23 15 -37 -2z"/>
<path d="M9271 156 c-7 -8 -11 -32 -9 -53 l3 -38 63 3 c65 4 90 -13 30 -21
-18 -2 12 -4 67 -4 55 0 90 2 78 4 -13 2 -23 9 -23 14 0 6 82 9 220 8 228 -1
250 2 250 40 -1 31 -25 49 -61 48 -18 -1 -37 -5 -40 -10 -12 -16 -421 -5 -427
12 -2 7 -12 5 -27 -5 -24 -16 -51 -11 -40 7 9 13 -9 11 -23 -3 -9 -9 -15 -9
-24 0 -16 16 -23 15 -37 -2z"/>
<path d="M10041 156 c-7 -8 -11 -32 -9 -53 l3 -38 63 3 c65 4 90 -13 30 -21
-18 -2 12 -4 67 -4 55 0 90 2 78 4 -13 2 -23 9 -23 14 0 6 82 9 220 8 228 -1
250 2 250 40 -1 31 -25 49 -61 48 -18 -1 -37 -5 -40 -10 -12 -16 -421 -5 -427
12 -2 7 -12 5 -27 -5 -24 -16 -51 -11 -40 7 9 13 -9 11 -23 -3 -9 -9 -15 -9
-24 0 -16 16 -23 15 -37 -2z"/>
<path d="M10811 156 c-7 -8 -11 -32 -9 -53 l3 -38 63 3 c65 4 90 -13 30 -21
-18 -2 12 -4 67 -4 55 0 90 2 78 4 -13 2 -23 9 -23 14 0 6 82 9 220 8 228 -1
250 2 250 40 -1 31 -25 49 -61 48 -18 -1 -37 -5 -40 -10 -12 -16 -421 -5 -427
12 -2 7 -12 5 -27 -5 -24 -16 -51 -11 -40 7 9 13 -9 11 -23 -3 -9 -9 -15 -9
-24 0 -16 16 -23 15 -37 -2z"/>
</g>
</svg>
