<?xml version="1.0" standalone="no"?>
<!DOCTYPE svg PUBLIC "-//W3C//DTD SVG 20010904//EN"
 "http://www.w3.org/TR/2001/REC-SVG-20010904/DTD/svg10.dtd">
<svg version="1.0" xmlns="http://www.w3.org/2000/svg"
 width="1476.000000pt" height="116.000000pt" viewBox="0 0 1476.000000 116.000000"
 preserveAspectRatio="xMidYMid meet">
<metadata>
Created by potrace 1.16, written by Peter Selinger 2001-2019
</metadata>
<g transform="translate(0.000000,116.000000) scale(0.100000,-0.100000)"
fill="#000000" stroke="none">
<path d="M6616 1126 c-77 -21 -188 -145 -206 -231 -6 -29 -8 -30 -60 -31 -79
-3 -80 -3 -80 -18 0 -8 -9 -18 -20 -21 -31 -10 -38 -55 -12 -76 17 -13 34 -16
84 -12 96 8 99 2 101 -189 2 -134 0 -157 -16 -182 -10 -15 -24 -25 -31 -23 -7
3 -19 1 -26 -3 -7 -5 -23 -5 -34 -1 -29 11 -83 -6 -96 -29 -7 -12 -7 -27 0
-44 10 -28 20 -32 37 -15 8 8 17 8 32 0 15 -8 27 -9 40 -1 25 13 67 13 92 -1
16 -8 25 -7 38 6 16 13 26 14 66 5 33 -7 51 -8 59 0 5 5 42 10 82 10 58 0 73
3 78 17 11 27 -8 35 -91 38 -43 2 -90 8 -105 14 l-28 11 0 194 c0 222 -2 216
84 216 33 0 52 6 66 20 12 12 33 20 55 20 30 0 46 10 105 69 61 60 70 73 70
105 0 123 -131 192 -284 152z m70 -169 c3 -8 0 -26 -6 -41 -7 -19 -7 -33 1
-48 11 -20 9 -20 -61 -16 -81 4 -109 23 -89 60 22 41 143 76 155 45z"/>
<path d="M10286 1095 c-11 -12 -16 -35 -16 -80 0 -54 -4 -68 -26 -95 -32 -38
-73 -60 -112 -60 -37 0 -67 -22 -59 -44 4 -9 15 -16 24 -16 11 0 23 -12 30
-29 10 -29 13 -30 74 -28 l64 2 0 -202 c0 -188 1 -203 21 -229 45 -62 78 -72
191 -62 88 9 153 67 153 136 0 16 7 35 15 42 20 16 21 106 1 113 -7 3 -32 3
-55 0 -38 -5 -41 -8 -41 -36 0 -50 -32 -135 -61 -163 -26 -25 -28 -25 -58 -10
-34 18 -66 70 -55 88 4 7 9 35 10 62 13 245 19 275 52 260 9 -4 26 -6 37 -5
11 2 45 4 75 5 102 5 122 25 79 80 -19 25 -25 26 -108 26 -52 0 -92 5 -98 11
-8 8 -10 33 -6 75 7 75 -8 118 -45 133 -15 6 -37 18 -48 26 -20 14 -23 14 -38
0z"/>
<path d="M1870 1088 c-56 -21 -80 -79 -45 -108 8 -7 15 -19 15 -27 0 -8 9 -26
20 -40 11 -14 20 -29 20 -33 0 -13 -63 -18 -86 -8 -15 7 -30 5 -52 -6 -17 -9
-47 -16 -66 -16 -19 0 -38 -5 -41 -10 -11 -17 15 -40 44 -40 15 0 31 -4 37
-10 12 -12 86 -16 103 -6 6 4 25 5 41 1 l30 -7 0 -167 c0 -234 -5 -245 -122
-243 -51 1 -60 -2 -74 -24 -9 -13 -22 -24 -29 -24 -20 0 -27 -32 -11 -48 11
-11 45 -14 150 -14 77 0 138 -4 142 -9 4 -6 11 -5 20 2 10 8 43 10 108 6 88
-5 95 -4 115 17 12 12 21 30 21 38 0 19 -48 60 -61 53 -4 -3 -29 -9 -54 -14
-84 -16 -109 32 -90 169 3 25 9 98 12 163 5 126 -5 179 -36 176 -50 -5 -57 22
-12 45 29 15 51 59 51 101 0 47 -99 102 -150 83z"/>
<path d="M9570 1088 c-56 -21 -80 -79 -45 -108 8 -7 15 -19 15 -27 0 -8 9 -26
20 -40 11 -14 20 -29 20 -33 0 -13 -63 -18 -86 -8 -15 7 -30 5 -52 -6 -17 -9
-47 -16 -66 -16 -19 0 -38 -5 -41 -10 -11 -17 15 -40 44 -40 15 0 31 -4 37
-10 12 -12 86 -16 103 -6 6 4 25 5 41 1 l30 -7 0 -167 c0 -234 -5 -245 -122
-243 -51 1 -60 -2 -74 -24 -9 -13 -22 -24 -29 -24 -20 0 -27 -32 -11 -48 11
-11 45 -14 150 -14 77 0 138 -4 142 -9 4 -6 11 -5 20 2 10 8 43 10 108 6 88
-5 95 -4 115 17 12 12 21 30 21 38 0 19 -48 60 -61 53 -4 -3 -29 -9 -54 -14
-84 -16 -109 32 -90 169 3 25 9 98 12 163 5 126 -5 179 -36 176 -50 -5 -57 22
-12 45 29 15 51 59 51 101 0 47 -99 102 -150 83z"/>
<path d="M4 1065 c-7 -18 3 -35 22 -35 8 0 14 -10 14 -23 0 -37 17 -45 80 -40
l58 6 7 -73 c4 -40 4 -180 0 -311 -7 -225 -8 -239 -26 -239 -11 0 -27 -4 -37
-9 -9 -6 -39 -13 -65 -16 -48 -6 -70 -26 -50 -46 14 -14 369 -21 475 -11 106
11 140 33 181 113 31 62 33 75 12 83 -8 3 -15 12 -15 21 0 8 7 15 15 15 8 0
15 7 15 15 0 28 -51 138 -73 155 l-21 17 24 49 c33 69 38 159 12 210 -26 51
-44 66 -122 103 l-65 31 -218 0 c-181 0 -219 -2 -223 -15z m389 -114 c15 -13
20 -13 27 -2 7 12 16 12 54 1 26 -7 51 -21 56 -31 26 -47 -2 -139 -49 -163
-41 -21 -109 -30 -126 -16 -12 10 -18 10 -30 0 -31 -26 -45 -5 -44 67 1 38 0
84 -3 103 -3 19 -1 40 4 47 13 17 89 13 111 -6z m72 -321 c8 -6 19 -9 24 -5 6
3 27 -9 46 -27 96 -88 37 -243 -100 -263 -11 -1 -28 -6 -38 -10 -9 -4 -25 -4
-35 1 -9 4 -24 8 -31 8 -26 2 -55 65 -52 115 1 25 7 51 13 58 8 10 6 19 -7 33
-15 16 -16 25 -7 44 6 13 8 33 5 44 -5 20 -1 20 81 17 48 -1 93 -8 101 -15z"/>
<path d="M2598 1070 c-40 -24 38 -103 106 -106 55 -3 53 -2 70 -20 18 -17 21
-80 6 -104 -8 -13 -13 -13 -42 0 -47 20 -160 16 -201 -7 -73 -43 -122 -180
-115 -318 10 -173 89 -264 227 -260 53 2 68 6 82 24 22 26 50 27 67 1 11 -18
23 -20 105 -20 98 0 108 3 125 36 18 33 -9 51 -52 36 -43 -16 -61 -15 -79 3
-13 12 -15 57 -13 277 2 145 6 289 11 320 9 66 -4 96 -58 128 -26 16 -50 20
-127 20 -52 0 -102 -5 -112 -10z m122 -322 c28 -30 62 -123 68 -184 8 -95 -39
-193 -111 -230 -26 -14 -30 -13 -57 8 -71 57 -111 222 -71 295 5 10 12 30 16
46 4 18 20 37 53 57 56 36 75 37 102 8z"/>
<path d="M7717 1073 c-4 -3 -7 -13 -7 -21 0 -9 -7 -23 -16 -33 -23 -25 -8 -42
30 -35 25 5 37 2 51 -14 14 -15 20 -17 26 -8 4 7 10 10 12 8 3 -3 7 -139 10
-302 6 -329 10 -350 71 -387 118 -73 332 -33 358 67 5 18 13 32 18 32 5 0 17
17 26 38 14 31 16 77 17 270 0 128 4 235 9 238 4 3 8 17 8 31 0 24 2 25 48 18
33 -4 53 -2 66 8 22 16 16 44 -11 54 -10 4 -24 15 -31 25 -12 16 -29 18 -141
18 -106 0 -131 -3 -142 -16 -11 -14 -11 -18 2 -28 8 -6 13 -19 11 -28 -4 -23
45 -48 82 -41 l29 6 -6 -234 c-7 -288 -19 -346 -82 -383 -53 -31 -100 -39
-115 -21 -7 8 -23 15 -36 15 -13 0 -24 4 -24 9 0 5 -18 32 -40 60 -42 52 -48
82 -28 125 9 22 8 29 -6 45 -13 14 -15 25 -8 38 5 10 8 74 6 143 -1 114 0 129
22 173 27 52 26 52 54 35 17 -11 23 -9 42 9 20 21 21 23 5 41 -9 10 -17 23
-17 29 0 6 -7 14 -16 17 -21 8 -269 8 -277 -1z"/>
<path d="M4137 866 c-67 -25 -97 -57 -138 -146 -17 -36 -35 -73 -40 -82 -5
-10 -9 -44 -9 -76 0 -84 60 -204 125 -251 64 -46 118 -61 182 -51 57 9 84 21
128 58 62 51 97 142 59 156 -39 15 -61 5 -106 -48 -48 -55 -98 -76 -136 -57
-10 5 -38 20 -65 32 -39 20 -49 30 -58 63 -7 25 -7 42 -1 48 9 9 123 15 300
17 56 1 106 47 96 89 -27 113 -82 200 -146 233 -52 27 -141 34 -191 15z"/>
<path d="M3333 851 c-28 -13 -49 -33 -68 -65 -40 -68 -48 -108 -35 -172 10
-49 10 -58 -6 -75 -11 -13 -26 -18 -39 -15 -29 7 -41 -3 -66 -58 l-21 -48 27
-28 27 -28 -26 -55 c-22 -45 -27 -65 -24 -118 3 -60 5 -64 28 -68 14 -1 36
-14 49 -27 39 -40 83 -46 277 -42 160 3 183 6 220 25 23 12 44 29 48 38 3 9
11 13 17 10 13 -9 49 23 49 44 0 9 -9 27 -20 41 -11 14 -20 31 -20 39 0 44
-94 131 -140 131 -11 0 -23 7 -27 16 -4 11 -13 14 -29 10 -13 -4 -33 -1 -44 6
-15 10 -22 10 -32 0 -17 -17 -73 -15 -88 3 -11 14 -16 14 -35 1 -14 -9 -27
-11 -36 -5 -8 5 -27 9 -44 9 -16 0 -37 5 -45 10 -13 8 -13 11 2 26 14 15 22
16 43 6 19 -9 32 -9 46 -2 11 6 52 13 92 14 100 5 169 33 183 76 6 17 16 35
22 39 15 9 34 62 27 79 -9 24 5 34 28 19 12 -8 40 -14 61 -13 30 1 44 7 59 28
19 25 19 31 7 67 -10 32 -21 43 -54 57 -45 19 -62 19 -118 -1 -34 -11 -42 -10
-94 16 -68 35 -138 38 -201 10z m168 -117 c49 -44 43 -118 -13 -164 -47 -39
-89 -37 -134 6 -33 31 -35 36 -29 76 10 68 14 75 46 96 36 23 97 16 130 -14z
m59 -419 c0 -9 9 -15 24 -15 42 0 86 -76 56 -95 -23 -14 -373 -1 -378 14 -2 7
-12 5 -28 -5 -23 -15 -24 -15 -24 5 0 11 13 35 28 52 36 41 101 57 225 58 80
1 97 -2 97 -14z"/>
<path d="M5687 856 c-40 -15 -107 -62 -107 -76 0 -5 -9 -12 -20 -15 -11 -3
-20 -12 -20 -18 0 -7 -11 -33 -24 -58 -14 -25 -25 -61 -26 -80 -5 -119 8 -205
35 -233 8 -8 15 -21 15 -29 0 -8 17 -30 39 -49 41 -38 77 -47 186 -47 67 1 84
9 149 72 64 62 83 107 85 204 3 136 -28 225 -99 285 -64 55 -138 70 -213 44z
m106 -126 c7 -8 25 -23 40 -33 57 -37 85 -177 49 -244 -8 -14 -9 -24 -2 -28
18 -11 11 -36 -18 -65 -35 -35 -103 -48 -159 -30 -52 17 -103 67 -103 101 0
15 -4 31 -10 34 -5 3 -10 38 -10 77 0 58 5 83 30 134 28 59 32 63 67 66 74 6
105 3 116 -12z"/>
<path d="M8805 854 c-16 -9 -47 -32 -68 -51 -31 -28 -41 -32 -53 -22 -8 6 -14
21 -14 33 0 37 -19 46 -97 46 l-73 0 0 -45 c0 -41 2 -45 28 -51 47 -10 52 -13
61 -37 13 -32 13 -345 1 -368 -6 -9 -24 -21 -42 -24 -65 -14 -77 -45 -25 -66
35 -15 208 -20 245 -7 14 5 22 16 22 32 0 28 -16 36 -70 36 -38 0 -39 1 -46
46 -3 25 -2 55 3 67 5 12 8 58 7 102 -3 72 0 84 23 118 14 20 34 37 44 37 9 0
31 14 47 30 39 39 77 39 122 1 l35 -29 -1 -158 c0 -204 -3 -214 -53 -214 -25
0 -44 -7 -55 -19 -17 -19 -17 -20 16 -37 30 -16 84 -26 133 -25 11 1 44 1 72
2 29 0 55 5 58 10 4 5 15 9 26 9 12 0 19 7 19 19 0 18 -21 30 -78 46 -35 10
-56 49 -45 82 5 16 6 75 2 133 -4 58 -4 117 -2 133 10 49 -15 109 -59 146 -35
29 -51 35 -97 38 -38 2 -65 -2 -86 -13z"/>
<path d="M1234 846 c-18 -8 -50 -31 -73 -51 -50 -45 -72 -43 -87 10 l-11 40
-111 3 -111 3 -9 -33 c-10 -37 0 -60 34 -79 15 -8 27 -8 40 -1 22 12 68 -8 83
-36 8 -15 15 -224 12 -329 -2 -40 -29 -56 -83 -49 -77 10 -117 -25 -65 -58 18
-12 57 -14 199 -12 187 3 212 9 206 50 -3 18 -10 21 -53 22 -78 1 -84 3 -109
27 -22 22 -23 30 -20 118 2 52 9 96 14 97 6 2 24 30 40 62 21 41 43 68 74 89
67 47 95 40 74 -17 -11 -28 -10 -34 12 -57 13 -14 31 -25 41 -25 10 0 21 -5
24 -10 13 -20 26 2 19 32 -5 27 -4 30 12 23 46 -18 49 -14 49 62 0 66 -3 75
-27 100 -22 22 -38 27 -85 30 -36 2 -70 -2 -89 -11z"/>
<path d="M11286 850 c-121 -5 -150 -16 -107 -40 12 -6 21 -16 21 -23 0 -7 14
-18 31 -24 l31 -12 -7 -68 c-4 -37 -13 -79 -20 -93 -7 -14 -18 -41 -24 -60 -7
-19 -22 -61 -33 -93 -11 -32 -25 -56 -30 -55 -6 2 -12 39 -14 81 -2 43 -8 86
-14 97 -5 10 -10 30 -10 43 0 14 -7 27 -15 31 -8 3 -15 17 -15 31 0 15 -4 35
-10 45 -14 26 -4 44 35 63 42 20 45 42 8 61 -21 10 -66 13 -178 12 -147 -1
-150 -1 -153 -23 -3 -17 4 -26 25 -35 15 -7 32 -18 36 -25 5 -8 22 -11 50 -7
39 6 44 4 55 -20 7 -15 12 -35 12 -46 0 -10 4 -21 9 -25 6 -3 19 -38 31 -78
12 -39 34 -112 50 -162 42 -131 51 -171 45 -198 -6 -21 -12 -24 -46 -22 -37 2
-69 15 -38 15 10 1 9 3 -3 11 -10 5 -18 22 -18 36 0 19 -4 24 -17 19 -10 -4
-25 2 -39 15 -20 19 -24 20 -30 6 -3 -9 -21 -21 -40 -27 -19 -6 -41 -21 -49
-33 -20 -28 -19 -106 1 -135 24 -35 89 -71 126 -71 18 -1 48 -1 67 -1 39 0 95
31 118 67 16 24 17 24 174 22 164 -2 189 4 189 40 -1 31 -25 49 -61 48 -18 -1
-36 -5 -39 -8 -5 -7 -103 -13 -165 -10 -30 1 -30 2 -26 48 2 27 12 59 22 72
11 13 19 36 19 50 0 15 15 58 34 97 18 38 41 91 51 117 10 26 22 50 26 53 5 3
9 12 9 20 0 31 43 114 59 114 17 0 61 41 61 58 0 10 -56 34 -69 30 -3 -1 -60
-4 -125 -8z"/>
<path d="M31 216 c-7 -8 -11 -32 -9 -53 l3 -38 63 3 c65 4 90 -13 30 -21 -18
-2 12 -4 67 -4 55 0 90 2 78 4 -13 2 -23 9 -23 14 0 6 82 9 220 8 228 -1 250
2 250 40 -1 31 -25 49 -61 48 -18 -1 -37 -5 -40 -10 -12 -16 -421 -5 -427 12
-2 7 -12 5 -27 -5 -24 -16 -51 -11 -40 7 9 13 -9 11 -23 -3 -9 -9 -15 -9 -24
0 -16 16 -23 15 -37 -2z"/>
<path d="M801 216 c-7 -8 -11 -32 -9 -53 l3 -38 63 3 c65 4 90 -13 30 -21 -18
-2 12 -4 67 -4 55 0 90 2 78 4 -13 2 -23 9 -23 14 0 6 82 9 220 8 228 -1 250
2 250 40 -1 31 -25 49 -61 48 -18 -1 -37 -5 -40 -10 -12 -16 -421 -5 -427 12
-2 7 -12 5 -27 -5 -24 -16 -51 -11 -40 7 9 13 -9 11 -23 -3 -9 -9 -15 -9 -24
0 -16 16 -23 15 -37 -2z"/>
<path d="M1571 216 c-7 -8 -11 -32 -9 -53 l3 -38 63 3 c65 4 90 -13 30 -21
-18 -2 12 -4 67 -4 55 0 90 2 78 4 -13 2 -23 9 -23 14 0 6 82 9 220 8 228 -1
250 2 250 40 -1 31 -25 49 -61 48 -18 -1 -37 -5 -40 -10 -12 -16 -421 -5 -427
12 -2 7 -12 5 -27 -5 -24 -16 -51 -11 -40 7 9 13 -9 11 -23 -3 -9 -9 -15 -9
-24 0 -16 16 -23 15 -37 -2z"/>
<path d="M2341 216 c-7 -8 -11 -32 -9 -53 l3 -38 63 3 c65 4 90 -13 30 -21
-18 -2 12 -4 67 -4 55 0 90 2 78 4 -13 2 -23 9 -23 14 0 6 82 9 220 8 228 -1
250 2 250 40 -1 31 -25 49 -61 48 -18 -1 -37 -5 -40 -10 -12 -16 -421 -5 -427
12 -2 7 -12 5 -27 -5 -24 -16 -51 -11 -40 7 9 13 -9 11 -23 -3 -9 -9 -15 -9
-24 0 -16 16 -23 15 -37 -2z"/>
<path d="M3881 216 c-7 -8 -11 -32 -9 -53 l3 -38 63 3 c65 4 90 -13 30 -21
-18 -2 12 -4 67 -4 55 0 90 2 78 4 -13 2 -23 9 -23 14 0 6 82 9 220 8 228 -1
250 2 250 40 -1 31 -25 49 -61 48 -18 -1 -37 -5 -40 -10 -12 -16 -421 -5 -427
12 -2 7 -12 5 -27 -5 -24 -16 -51 -11 -40 7 9 13 -9 11 -23 -3 -9 -9 -15 -9
-24 0 -16 16 -23 15 -37 -2z"/>
<path d="M5421 216 c-7 -8 -11 -32 -9 -53 l3 -38 63 3 c65 4 90 -13 30 -21
-18 -2 12 -4 67 -4 55 0 90 2 78 4 -13 2 -23 9 -23 14 0 6 82 9 220 8 228 -1
250 2 250 40 -1 31 -25 49 -61 48 -18 -1 -37 -5 -40 -10 -12 -16 -421 -5 -427
12 -2 7 -12 5 -27 -5 -24 -16 -51 -11 -40 7 9 13 -9 11 -23 -3 -9 -9 -15 -9
-24 0 -16 16 -23 15 -37 -2z"/>
<path d="M6191 216 c-7 -8 -11 -32 -9 -53 l3 -38 63 3 c65 4 90 -13 30 -21
-18 -2 12 -4 67 -4 55 0 90 2 78 4 -13 2 -23 9 -23 14 0 6 82 9 220 8 228 -1
250 2 250 40 -1 31 -25 49 -61 48 -18 -1 -37 -5 -40 -10 -12 -16 -421 -5 -427
12 -2 7 -12 5 -27 -5 -24 -16 -51 -11 -40 7 9 13 -9 11 -23 -3 -9 -9 -15 -9
-24 0 -16 16 -23 15 -37 -2z"/>
<path d="M7731 216 c-7 -8 -11 -32 -9 -53 l3 -38 63 3 c65 4 90 -13 30 -21
-18 -2 12 -4 67 -4 55 0 90 2 78 4 -13 2 -23 9 -23 14 0 6 82 9 220 8 228 -1
250 2 250 40 -1 31 -25 49 -61 48 -18 -1 -37 -5 -40 -10 -12 -16 -421 -5 -427
12 -2 7 -12 5 -27 -5 -24 -16 -51 -11 -40 7 9 13 -9 11 -23 -3 -9 -9 -15 -9
-24 0 -16 16 -23 15 -37 -2z"/>
<path d="M8501 216 c-7 -8 -11 -32 -9 -53 l3 -38 63 3 c65 4 90 -13 30 -21
-18 -2 12 -4 67 -4 55 0 90 2 78 4 -13 2 -23 9 -23 14 0 6 82 9 220 8 228 -1
250 2 250 40 -1 31 -25 49 -61 48 -18 -1 -37 -5 -40 -10 -12 -16 -421 -5 -427
12 -2 7 -12 5 -27 -5 -24 -16 -51 -11 -40 7 9 13 -9 11 -23 -3 -9 -9 -15 -9
-24 0 -16 16 -23 15 -37 -2z"/>
<path d="M9271 216 c-7 -8 -11 -32 -9 -53 l3 -38 63 3 c65 4 90 -13 30 -21
-18 -2 12 -4 67 -4 55 0 90 2 78 4 -13 2 -23 9 -23 14 0 6 82 9 220 8 228 -1
250 2 250 40 -1 31 -25 49 -61 48 -18 -1 -37 -5 -40 -10 -12 -16 -421 -5 -427
12 -2 7 -12 5 -27 -5 -24 -16 -51 -11 -40 7 9 13 -9 11 -23 -3 -9 -9 -15 -9
-24 0 -16 16 -23 15 -37 -2z"/>
<path d="M10041 216 c-7 -8 -11 -32 -9 -53 l3 -38 63 3 c65 4 90 -13 30 -21
-18 -2 12 -4 67 -4 55 0 90 2 78 4 -13 2 -23 9 -23 14 0 6 82 9 220 8 228 -1
250 2 250 40 -1 31 -25 49 -61 48 -18 -1 -37 -5 -40 -10 -12 -16 -421 -5 -427
12 -2 7 -12 5 -27 -5 -24 -16 -51 -11 -40 7 9 13 -9 11 -23 -3 -9 -9 -15 -9
-24 0 -16 16 -23 15 -37 -2z"/>
</g>
</svg>
